<svg width="255" height="257" viewBox="0 0 255 257" fill="none" xmlns="http://www.w3.org/2000/svg">
<path d="M223.674 218.272C218.479 223.737 213.563 227.262 209.679 230.047C164.027 262.779 110.008 253.238 98.5274 250.908C81.5743 247.467 48.8041 240.816 25.1119 212.974C-10.7324 170.852 -5.15087 104.491 22.6524 60.6844C27.7381 52.6714 54.6019 8.19783 109.203 1.06574C142.247 -3.25053 180.765 5.45494 208.659 28.8077C267.211 77.8273 263.043 176.856 223.674 218.272Z" fill="url(#paint0_linear_218_447)"/>
<path d="M254.991 96.6511C254.982 95.1585 252.971 94.6701 252.282 95.9946C245.622 108.8 227.105 141.83 206.054 157.018C171.779 181.748 142.856 227.477 155.36 256.891C155.36 256.891 256.065 259.279 254.991 96.6511Z" fill="#55BD51"/>
<path opacity="0.43" d="M248.252 115.498C248.124 115.936 247.984 116.286 247.851 116.67L247.431 117.793L246.569 120.028C245.984 121.513 245.376 122.989 244.768 124.464C243.543 127.411 242.28 130.343 240.991 133.263C238.401 139.097 235.653 144.862 232.82 150.583C229.994 156.309 227.008 161.957 223.903 167.538C220.794 173.117 217.604 178.654 214.233 184.083C207.515 194.952 200.199 205.467 192.169 215.422C188.102 220.357 183.904 225.188 179.434 229.766C174.933 234.309 170.237 238.664 165.243 242.657C165.135 242.744 164.976 242.726 164.889 242.618C164.804 242.512 164.819 242.359 164.92 242.271L164.923 242.269C169.74 238.1 174.324 233.68 178.681 229.046C183.051 224.422 187.149 219.549 191.114 214.577C195.076 209.601 198.838 204.467 202.481 199.251C206.123 194.033 209.547 188.666 212.939 183.282C219.68 172.482 225.841 161.327 231.69 150.013C234.602 144.35 237.401 138.627 240.097 132.856C241.45 129.972 242.776 127.076 244.066 124.164L245.967 119.782L246.895 117.582L247.346 116.478C247.487 116.114 247.646 115.725 247.757 115.401L247.775 115.348C247.82 115.217 247.962 115.148 248.092 115.192C248.219 115.236 248.288 115.371 248.252 115.498Z" fill="white"/>
<path d="M214.462 33.4765C214.046 32.1104 212.068 32.2105 211.798 33.6129C209.187 47.1709 201.226 82.508 186.069 102.173C161.389 134.193 147.353 184.012 166.851 207.578C166.851 207.578 259.855 182.322 214.462 33.4765Z" fill="#58B079"/>
<path opacity="0.43" d="M213.432 52.5968C213.435 53.0335 213.403 53.3929 213.385 53.7815L213.307 54.9258L213.127 57.2101C212.997 58.7317 212.843 60.2507 212.689 61.7696C212.37 64.8063 212.013 67.8389 211.629 70.868C210.848 76.9251 209.903 82.9601 208.868 88.9797C207.841 95.0013 206.645 100.994 205.322 106.959C203.994 112.923 202.581 118.87 200.973 124.767C197.78 136.566 193.941 148.203 189.294 159.522C186.911 165.155 184.38 170.73 181.53 176.146C178.641 181.539 175.522 186.812 172.032 191.834C171.954 191.945 171.801 191.973 171.69 191.895C171.582 191.82 171.553 191.673 171.623 191.563L171.625 191.56C174.902 186.423 177.897 181.121 180.626 175.682C183.371 170.251 185.797 164.666 188.074 159.025C190.348 153.382 192.396 147.649 194.312 141.873C196.226 136.095 197.9 130.241 199.541 124.379C202.775 112.638 205.378 100.729 207.654 88.7611C208.779 82.7739 209.784 76.7632 210.681 70.7363C211.135 67.7236 211.561 64.7064 211.95 61.6843L212.497 57.1474L212.748 54.8772L212.86 53.7419C212.891 53.3697 212.93 52.9694 212.944 52.6435L212.946 52.5884C212.952 52.4543 213.065 52.3501 213.199 52.3557C213.329 52.3609 213.431 52.4682 213.432 52.5968Z" fill="white"/>
<path d="M50.1829 46.5802C49.3063 81.9065 46.4633 203.761 47.8205 246.942C47.9642 251.517 51.6351 255.188 56.214 255.338C78.8614 256.078 144.011 257.955 181.055 256.402C188.77 256.079 194.906 249.835 195.066 242.122C195.836 205.043 197.534 100.752 193.497 52.9763C193.014 47.252 188.517 42.6936 182.795 42.1218C158.131 39.6569 92.6239 33.6315 60.6207 35.7063C54.8489 36.0805 50.3262 40.8036 50.1829 46.5802Z" fill="url(#paint1_linear_218_447)"/>
<path d="M59.3852 57.5567C58.1483 86.4887 54.2467 182.739 55.485 218.33C55.666 223.532 59.7701 227.739 64.9715 228.043C86.3873 229.295 141.317 232.055 172.729 229.542C178.385 229.09 182.824 224.52 183.129 218.859C184.721 189.343 189.291 99.7204 188.104 64.528C187.915 58.9138 183.562 54.3288 177.962 53.8265C154.793 51.7484 95.2884 46.8036 68.5956 48.2586C63.5847 48.5317 59.5993 52.5479 59.3852 57.5567Z" fill="white"/>
<path opacity="0.6" d="M59.3852 57.5567C58.1483 86.4887 54.2467 182.739 55.485 218.33C55.666 223.532 59.7701 227.739 64.9715 228.043C86.3873 229.295 141.317 232.055 172.729 229.542C178.385 229.09 182.824 224.52 183.129 218.859C184.721 189.343 189.291 99.7204 188.104 64.528C187.915 58.9138 183.562 54.3288 177.962 53.8265C154.793 51.7484 95.2884 46.8036 68.5956 48.2586C63.5847 48.5317 59.5993 52.5479 59.3852 57.5567Z" fill="url(#paint2_linear_218_447)"/>
<path opacity="0.5" d="M106.153 41.879C106.153 42.963 106.999 43.8569 108.083 43.9136C113.432 44.1935 128.5 44.9854 135.235 45.3757C136.563 45.4527 137.605 44.2602 137.353 42.9555L137.31 42.7328C137.138 41.8426 136.399 41.1725 135.495 41.0898C130.943 40.6731 117.207 39.5176 108.107 39.8421C107.013 39.8811 106.153 40.7861 106.153 41.879Z" fill="white"/>
<path d="M166.07 161.881L75.0171 160.134C72.0487 160.078 69.8133 163.532 70.0585 167.81C70.301 172.046 73.3972 173.323 76.3066 173.278L165.381 173.99C167.206 173.962 168.833 171.284 169.034 167.985C169.236 164.66 167.918 161.916 166.07 161.881Z" fill="#E2F3FF"/>
<path d="M166.317 189.782L75.2636 188.036C72.2952 187.979 70.0598 191.433 70.305 195.712C70.5475 199.947 73.6437 201.224 76.5532 201.179L165.628 201.892C167.453 201.864 169.08 199.186 169.28 195.886C169.482 192.561 168.164 189.818 166.317 189.782Z" fill="#E2F3FF"/>
<path d="M127.223 165.697L77.8094 165.184C76.1985 165.167 74.9871 166.094 75.1222 167.243C75.2559 168.381 76.9367 168.725 78.5157 168.715L126.856 168.949C127.846 168.942 128.728 168.224 128.835 167.338C128.943 166.445 128.226 165.707 127.223 165.697Z" fill="url(#paint3_linear_218_447)"/>
<path d="M45.6803 135.437C45.6803 135.437 43.0043 136.737 42.5122 138.231C42.1174 139.429 39.1584 139.584 38.8661 141.941C38.7152 143.158 37.8137 144.133 36.6003 144.319C33.5781 144.782 28.9208 146.349 28.1756 151.591C27.6069 155.593 29.6486 157.11 31.7913 157.635C33.365 158.021 34.4109 159.55 34.0926 161.137C33.7872 162.66 34.2425 164.42 36.8826 165.812C42.799 168.93 48.7074 158.423 48.7074 158.423L49.9182 140.076L45.6803 135.437Z" fill="#F2F1B6"/>
<path d="M77.8729 131.087C77.8729 131.087 66.0601 149.753 52.0133 153.359C52.0133 153.359 54.7504 161.147 56.863 162.038C56.863 162.038 74.1446 147.633 78.5857 133.739L77.8729 131.087Z" fill="url(#paint4_linear_218_447)"/>
<path d="M21.3616 250.478L20.9787 253.623C20.9061 254.219 20.4361 254.691 19.8384 254.759C18.8295 254.874 17.2103 254.992 15.6261 254.825C14.9308 254.751 14.4794 254.048 14.6912 253.382C15.0774 252.168 15.7839 250.346 16.8025 249.274H20.2939C20.9394 249.274 21.4396 249.838 21.3616 250.478Z" fill="black"/>
<path d="M48.7074 213.644L49.2967 217.107C49.2967 217.107 47.3233 237.077 46.9723 245.065C46.9173 246.318 47.2416 247.555 47.8995 248.623L51.3309 254.19L42.61 249.048L42.4363 247.985L43.864 246.024L41.994 223.653C41.8842 222.339 42.1556 221.021 42.7759 219.857L44.5798 216.471L48.7074 213.644Z" fill="url(#paint5_linear_218_447)"/>
<path d="M51.9053 254.996H49.1223C48.6014 254.996 48.1101 254.757 47.7923 254.345C46.9247 253.218 45.1272 251.021 44.2676 250.964C43.1105 250.887 43.2586 254.996 43.2586 254.996H42.6101L41.7886 249.89C41.5818 248.605 42.2214 247.332 43.3763 246.73C43.3763 246.73 43.6409 248.684 45.0751 249.549C46.5092 250.413 50.9113 253.509 50.9113 253.509C50.9113 253.509 51.4504 253.432 52.0424 253.539C52.9203 253.697 52.7976 254.996 51.9053 254.996Z" fill="url(#paint6_linear_218_447)"/>
<path d="M36.7625 215.289C36.7625 215.289 25.2015 237.198 23.3638 242.2C21.5261 247.202 20.8822 251.375 20.8576 251.77C20.819 252.388 20.0503 252.98 17.9313 252.98C16.8377 252.98 16.3022 252.542 16.0399 252.118C15.8162 251.757 15.8046 251.304 15.9931 250.923C16.6619 249.571 18.7841 245.25 19.5701 243.29C20.5085 240.95 22.5271 230.346 23.6342 226.659C24.7412 222.972 25.9926 218.973 30.8136 215.289C30.8138 215.289 34.1232 212.051 36.7625 215.289Z" fill="url(#paint7_linear_218_447)"/>
<path d="M44.0658 179.39C47.048 166.766 39.4932 159.626 39.4932 159.626C44.2602 155.054 52.9455 152.974 52.9455 152.974C52.9455 152.974 61.2332 159.027 60.25 163.765C59.6738 166.542 54.4246 180.399 54.4246 180.399C54.4246 180.399 49.5706 182.694 44.0658 179.39Z" fill="url(#paint8_linear_218_447)"/>
<path d="M37.4539 185.641C38.6675 181.988 44.0658 179.39 44.0658 179.39C49.5706 182.693 54.4246 180.399 54.4246 180.399C54.4246 180.399 55.5131 184.555 54.7618 188.418C54.0105 192.281 49.2968 217.107 49.2968 217.107C41.8696 218.611 30.4468 215.595 30.4468 215.595C35.1775 207.204 36.2402 189.293 37.4539 185.641Z" fill="#F2F1B6"/>
<path d="M47.5274 144.631L45.1028 155.512C44.8707 156.47 45.7453 156.313 46.7151 156.13C48.3034 155.831 50.3504 155.215 51.0347 153.981C51.1044 153.855 51.1391 153.713 51.1588 153.571L52.2005 146.026C52.2831 145.427 51.9593 144.846 51.4063 144.602L49.3962 143.711C48.6223 143.368 47.7265 143.809 47.5274 144.631Z" fill="url(#paint9_linear_218_447)"/>
<path d="M52.1715 134.713C52.1715 134.713 54.7527 136.458 55.8618 140.904C56.971 145.349 55.1684 146.944 53.3208 146.846C51.4731 146.748 48.7942 146.178 46.473 142.988C44.1519 139.799 48.7889 132.58 52.1715 134.713Z" fill="url(#paint10_linear_218_447)"/>
<path d="M48.8137 141.196C48.8137 141.196 47.868 134.826 53.1617 135.8L54.2321 136.913C54.2321 136.913 56.8232 133.998 53.9559 131.794C51.0884 129.591 47.1093 130.155 44.9078 134.167C42.7063 138.179 41.9073 140.998 43.7525 143.491C45.5977 145.984 46.9857 143.846 46.9857 143.846C46.9857 143.846 46.1395 141.688 46.8416 140.762C47.5438 139.836 48.4497 141.3 48.4497 141.3L48.8137 141.196Z" fill="url(#paint11_linear_218_447)"/>
<path d="M48.0902 141.741C48.0902 141.741 47.6233 138.464 45.9479 139.401C44.2726 140.337 46.5517 142.462 47.4656 143.185L48.0902 141.741Z" fill="url(#paint12_linear_218_447)"/>
<path d="M77.7918 134.93C77.8275 135.315 76.3943 135.581 75.9381 133.939C76.0636 133.227 76.2863 130.106 76.8331 129.621C79.7463 127.038 84.941 124.134 84.941 124.134C85.522 125.02 84.76 125.603 84.76 125.603L82.1669 127.352C82.4374 128.247 82.8321 129.038 82.8768 130.06C82.9106 130.834 82.6245 131.591 82.1104 132.178C81.5943 132.767 80.8996 133.528 80.2732 134.105C79.088 135.198 77.7918 134.93 77.7918 134.93Z" fill="url(#paint13_linear_218_447)"/>
<path d="M79.1992 133.656L78.8059 133.495C78.8588 133.367 80.1028 130.346 80.7045 129.718C80.9333 129.479 81.0441 129.275 81.0339 129.11C81.0282 129.02 80.9841 128.931 80.8993 128.841L78.7991 129.962L77.8723 131.413L77.5142 131.184L78.5008 129.64L80.9571 128.328L81.0666 128.418C81.3149 128.62 81.4432 128.838 81.4582 129.083C81.4764 129.375 81.3304 129.679 81.012 130.012C80.5583 130.485 79.5496 132.803 79.1992 133.656Z" fill="url(#paint14_linear_218_447)"/>
<path d="M39.4932 159.626C39.4932 159.626 26.0707 187.158 21.2096 189.565C21.2096 189.565 16.2742 190.08 13.2537 190.993C12.4939 191.222 12.5193 192.3 13.2851 192.509C15.3886 193.082 18.8736 193.561 22.0674 191.829C22.0674 191.829 20.3518 194.398 21.3526 195.399C21.3526 195.399 23.6401 192.686 24.498 191.829C25.2532 191.075 38.9986 176.103 44.7775 167.074C45.2444 166.345 44.9204 164.177 44.5961 163.374C43.8498 161.526 42.1935 158.576 39.4932 159.626Z" fill="url(#paint15_linear_218_447)"/>
<path d="M121.772 143.563C144.008 143.563 162.033 125.554 162.033 103.34C162.033 81.1257 144.008 63.1174 121.772 63.1174C99.5361 63.1174 81.5104 81.1257 81.5104 103.34C81.5104 125.554 99.5361 143.563 121.772 143.563Z" fill="#E2F3FF"/>
<path d="M134.831 88.8594C134.831 95.7219 129.262 103.131 122.393 103.131C115.524 103.131 109.955 95.7219 109.955 88.8594C109.955 81.9969 115.524 77.1282 122.393 77.1282C129.262 77.1282 134.831 81.9968 134.831 88.8594Z" fill="url(#paint16_linear_218_447)"/>
<path d="M106.958 129.552H137.32C140.517 129.552 143.346 127.488 144.32 124.447L145.954 119.345C147.15 115.61 145.205 111.566 141.518 110.219C129.162 105.706 116.385 106.285 103.296 110.636C99.6297 111.855 97.595 115.773 98.6066 119.499L99.8647 124.132C100.733 127.331 103.64 129.552 106.958 129.552Z" fill="url(#paint17_linear_218_447)"/>
<path d="M83.9897 194.509C83.9322 196.295 82.4405 197.728 80.6557 197.709C78.8689 197.691 77.4655 196.224 77.523 194.433C77.5805 192.643 79.0772 191.21 80.8639 191.233C82.6485 191.255 84.0471 192.722 83.9897 194.509Z" fill="#D974E6"/>
<path d="M96.0866 194.649C96.0294 196.429 94.5496 197.856 92.7792 197.837C91.0069 197.819 89.615 196.358 89.6723 194.575C89.7297 192.792 91.2143 191.364 92.9866 191.387C94.7567 191.41 96.1438 192.87 96.0866 194.649Z" fill="#D974E6"/>
<path d="M109.056 194.863C108.998 196.65 107.506 198.083 105.722 198.064C103.935 198.045 102.531 196.578 102.589 194.788C102.647 192.997 104.143 191.564 105.93 191.587C107.714 191.61 109.113 193.076 109.056 194.863Z" fill="#D974E6"/>
<path d="M134.706 195.168C134.649 196.947 133.169 198.374 131.399 198.355C129.627 198.337 128.235 196.876 128.292 195.093C128.349 193.31 129.834 191.883 131.606 191.905C133.376 191.928 134.764 193.388 134.706 195.168Z" fill="#D974E6"/>
<path d="M147.675 195.382C147.618 197.168 146.126 198.601 144.342 198.582C142.555 198.564 141.151 197.097 141.209 195.306C141.266 193.516 142.763 192.083 144.55 192.106C146.334 192.128 147.733 193.595 147.675 195.382Z" fill="#D974E6"/>
<path d="M121.153 195.004C121.095 196.783 119.616 198.21 117.845 198.192C116.073 198.173 114.681 196.712 114.738 194.929C114.796 193.146 116.28 191.719 118.053 191.741C119.823 191.764 121.21 193.224 121.153 195.004Z" fill="#D974E6"/>
<path d="M8.07564 105.16C7.95478 105.165 7.83667 105.102 7.77886 104.989C7.58805 104.619 7.40193 104.238 7.22574 103.857C7.15331 103.701 7.22445 103.517 7.38465 103.446C7.77206 103.272 7.83144 103.706 8.34761 104.709C8.42657 104.863 8.36314 105.05 8.20598 105.127C8.16406 105.147 8.11976 105.158 8.07564 105.16Z" fill="#91B3FA"/>
<path d="M5.81296 100.199C5.57353 99.4352 5.36232 98.652 5.18511 97.8715C5.14715 97.704 5.25533 97.5379 5.42702 97.5005C5.89541 97.4012 5.71645 97.7644 6.42169 100.017C6.47307 100.181 6.3785 100.355 6.21039 100.405C6.03989 100.456 5.8637 100.361 5.81296 100.199ZM4.56443 94.0088C4.48796 93.2084 4.442 92.39 4.42996 91.6046C4.42288 91.1825 5.0602 91.1893 5.06626 91.5938C5.07895 92.3767 5.12334 93.1664 5.19825 93.9499C5.21461 94.1208 5.08594 94.2724 4.91094 94.2887C4.73392 94.3051 4.5807 94.1779 4.56443 94.0088ZM4.62031 87.6984C4.71112 86.9042 4.83547 86.1032 4.98989 85.3175C5.06985 84.9124 5.6943 85.0306 5.61498 85.4335C5.4636 86.2034 5.34182 86.9883 5.25285 87.7662C5.20607 88.1756 4.57352 88.1065 4.62031 87.6984ZM6.19918 81.9198C6.03217 81.8665 5.94127 81.6911 5.99632 81.5279C6.25193 80.7682 6.54201 80.0082 6.85818 79.2692C7.02087 78.8894 7.60791 79.1283 7.4455 79.508C7.13576 80.2319 6.85148 80.9766 6.60083 81.721C6.54605 81.8844 6.36591 81.9734 6.19918 81.9198ZM8.75194 76.1845C8.59964 76.0991 8.54734 75.9092 8.63512 75.7603C9.04422 75.0665 9.48614 74.38 9.94864 73.7199C10.1872 73.381 10.7117 73.7305 10.4738 74.0704C10.0206 74.7172 9.58742 75.3898 9.18668 76.0696C9.099 76.2184 8.90424 76.2699 8.75194 76.1845ZM12.6656 71.1516C12.5862 71.1547 12.5059 71.1292 12.4419 71.0736C12.3106 70.9598 12.2986 70.7633 12.4155 70.6349C12.96 70.0358 13.5347 69.4509 14.1236 68.8961C14.2504 68.7768 14.4516 68.7801 14.5737 68.9036C14.6955 69.0272 14.6918 69.2238 14.5652 69.3432C13.988 69.8868 13.4248 70.4601 12.8911 71.0473C12.8312 71.1131 12.7491 71.1484 12.6656 71.1516ZM17.3798 66.9224C17.2783 66.9263 17.177 66.8831 17.1119 66.7979C17.0069 66.6603 17.0362 66.4656 17.1772 66.3628C17.8336 65.8846 18.5175 65.4256 19.2102 64.9989C19.3588 64.9069 19.5555 64.9503 19.6491 65.0957C19.7427 65.2407 19.698 65.4327 19.5492 65.5245C18.8706 65.9426 18.2004 66.3923 17.5574 66.8608C17.5038 66.8998 17.4418 66.9199 17.3798 66.9224ZM22.5744 63.5379C22.5004 63.3823 22.5699 63.1975 22.7294 63.125C23.4712 62.788 24.237 62.4754 25.0054 62.1955C25.4016 62.0524 25.6205 62.6344 25.2267 62.7778C24.474 63.0519 23.7239 63.3583 22.997 63.6885C22.8379 63.761 22.6484 63.6939 22.5744 63.5379ZM43.9414 61.8545C41.6248 61.2593 41.2403 61.4474 41.327 60.9837C41.3585 60.8146 41.5243 60.703 41.6971 60.733C42.5024 60.8748 43.3122 61.05 44.1043 61.2535C44.5109 61.3577 44.3492 61.9589 43.9414 61.8545ZM28.6032 61.4384C28.5635 61.2713 28.67 61.1041 28.8412 61.0651C29.6377 60.8832 30.4522 60.7295 31.2622 60.6082C31.6786 60.5461 31.7734 61.1605 31.3576 61.2226C30.5638 61.3415 29.7655 61.4921 28.9851 61.6703C28.8118 61.7095 28.6425 61.6038 28.6032 61.4384ZM37.6848 60.9064C35.2982 60.7875 34.9541 61.049 34.942 60.5763C34.9343 60.2766 35.2867 60.2408 35.2522 60.2572C36.0729 60.2354 36.9027 60.2451 37.7183 60.2855C37.8939 60.2942 38.0286 60.4404 38.0193 60.6117C38.0105 60.7754 37.8706 60.9133 37.6848 60.9064Z" fill="#91B3FA"/>
<path d="M48.8372 63.5562C47.8625 63.1238 47.3431 63.0572 47.5065 62.6659C47.5727 62.507 47.7581 62.4296 47.9214 62.4948C48.9474 62.9014 49.431 63.0322 49.2588 63.4014C49.2071 63.5122 48.9968 63.6266 48.8372 63.5562Z" fill="#91B3FA"/>
<path d="M65.519 81.1702C65.3834 81.1755 65.2543 81.0949 65.2068 80.9635C65.0674 80.5777 64.9182 80.1908 64.7635 79.8129C64.6983 79.6536 64.7777 79.4726 64.9411 79.4087C65.104 79.3453 65.2893 79.4219 65.3548 79.5813C65.5126 79.967 65.6646 80.3618 65.8071 80.7556C65.8655 80.9173 65.7786 81.095 65.6129 81.1524C65.5819 81.1632 65.5502 81.169 65.519 81.1702Z" fill="url(#paint18_linear_218_447)"/>
<path d="M36.3144 121.944C35.4323 121.955 34.5394 121.929 33.6607 121.867C33.4855 121.855 33.3538 121.706 33.3668 121.535C33.4036 121.053 33.7265 121.354 36.3077 121.323C36.4835 121.321 36.6275 121.458 36.6293 121.63C36.6324 121.93 36.2798 121.96 36.3144 121.944ZM40.252 121.347C40.1803 120.869 40.5754 121.09 43.0758 120.517C43.2472 120.477 43.4182 120.582 43.458 120.749C43.4979 120.916 43.3915 121.083 43.2203 121.122C42.3647 121.319 41.4874 121.482 40.6131 121.609C40.4378 121.634 40.2773 121.516 40.252 121.347ZM29.3916 121.278C28.5304 121.099 27.6655 120.882 26.8213 120.632C26.6532 120.582 26.5583 120.409 26.6096 120.245C26.754 119.781 27.0003 120.146 29.5251 120.67C29.6969 120.706 29.8064 120.871 29.7697 121.038C29.7326 121.206 29.5635 121.313 29.3916 121.278ZM47.2404 119.903C47.1079 119.909 46.9811 119.832 46.931 119.704C46.868 119.544 46.9501 119.364 47.1143 119.303C47.9219 118.999 48.7248 118.658 49.5008 118.29C49.6594 118.215 49.8493 118.28 49.9259 118.434C50.0025 118.588 49.9363 118.774 49.7782 118.849C48.9861 119.225 48.1665 119.573 47.342 119.883C47.3087 119.895 47.2743 119.902 47.2404 119.903ZM53.3542 116.808C53.2472 116.812 53.1406 116.763 53.0767 116.67C52.9794 116.527 53.0189 116.334 53.1652 116.239C53.8832 115.77 54.5901 115.266 55.2665 114.739C55.4041 114.632 55.6042 114.654 55.7137 114.788C55.823 114.922 55.8002 115.118 55.6627 115.225C54.9725 115.762 54.2509 116.277 53.5181 116.755C53.4675 116.788 53.4108 116.805 53.3542 116.808ZM58.6274 112.478C58.5443 112.481 58.4602 112.453 58.3952 112.392C58.2681 112.274 58.2637 112.077 58.3851 111.953C58.9816 111.342 59.5593 110.7 60.102 110.042C60.2126 109.908 60.4127 109.887 60.5496 109.995C60.6864 110.102 60.7077 110.298 60.5973 110.432C60.0435 111.102 59.454 111.758 58.8452 112.382C58.7857 112.442 58.707 112.475 58.6274 112.478ZM62.811 107.13C62.7511 107.132 62.6897 107.118 62.6345 107.086C62.484 106.997 62.4357 106.806 62.5267 106.659C62.9734 105.937 63.3941 105.187 63.7775 104.43C63.8554 104.276 64.046 104.212 64.2038 104.288C64.3614 104.364 64.426 104.55 64.348 104.704C63.9569 105.477 63.5276 106.242 63.0717 106.98C63.0139 107.073 62.9144 107.126 62.811 107.13ZM65.5895 101.005C65.1206 100.853 65.4991 100.623 66.1083 98.1697C66.2074 97.77 66.8262 97.9152 66.7268 98.3151C66.519 99.152 66.2719 99.9909 65.9923 100.808C65.9367 100.97 65.7571 101.06 65.5895 101.005ZM67.1046 94.4397C66.6125 94.3924 66.9291 94.0899 66.9708 91.5647C66.9776 91.1554 67.6142 91.1617 67.6072 91.5734C67.593 92.4352 67.5411 93.3058 67.453 94.161C67.4352 94.3344 67.2754 94.4574 67.1046 94.4397ZM67.0797 87.7178C66.9157 87.7242 66.7716 87.6066 66.7518 87.4447C66.6486 86.6035 66.5087 85.7599 66.3358 84.9376C66.3006 84.7695 66.4116 84.6051 66.5838 84.5702C66.7568 84.5363 66.9242 84.6436 66.9596 84.8116C67.1358 85.6507 67.2786 86.5114 67.3837 87.3697C67.4048 87.54 67.2802 87.6949 67.1056 87.7156C67.0969 87.7168 67.0882 87.7174 67.0797 87.7178Z" fill="url(#paint19_linear_218_447)"/>
<path d="M22.7731 119.129C21.7659 118.676 21.2905 118.524 21.4802 118.163C21.6773 117.787 22.0093 118.1 23.0406 118.565C23.2001 118.637 23.2695 118.821 23.1957 118.977C23.1218 119.133 22.9326 119.201 22.7731 119.129Z" fill="url(#paint20_linear_218_447)"/>
<path d="M22.8947 110.522L26.8309 108.252C28.7267 109.204 30.7922 109.867 32.9626 110.186C34.8201 114.119 34.6714 114.527 35.1599 114.488L40.6224 114.057C40.7819 114.044 40.916 113.934 40.9561 113.783L42.0996 109.465C44.191 108.809 46.1235 107.83 47.8419 106.593L52.0935 108.217C52.2426 108.274 52.4124 108.232 52.5162 108.113L56.0734 104.037C56.1774 103.918 56.1926 103.747 56.1114 103.613L53.7933 99.7732C54.7717 97.9203 55.4548 95.9022 55.7854 93.7821L59.9706 91.994C60.1174 91.9313 60.2074 91.7846 60.1948 91.6288L59.7629 86.2954C59.7504 86.1395 59.6378 86.0088 59.4828 85.97L55.0631 84.8611C54.3956 82.8199 53.3964 80.9348 52.1322 79.2589C53.6778 75.1672 54.0676 74.9994 53.6975 74.6916C49.5498 71.3634 49.5266 70.9405 49.0955 71.1891L45.1593 73.4597C43.2636 72.5076 41.1981 71.8442 39.0278 71.525C37.1713 67.5943 37.3192 67.1847 36.8304 67.223C31.4107 67.7446 31.1571 67.4641 31.0342 67.9284L29.8907 72.2463C27.7992 72.9019 25.8668 73.8809 24.1483 75.1184C20.012 73.6348 19.7947 73.2306 19.4739 73.5982C16.0251 77.6936 15.6285 77.6835 15.8789 78.0983L18.197 81.9379C17.2186 83.7908 16.5355 85.809 16.2048 87.9289C12.2447 89.7179 11.7558 89.5955 11.7954 90.0825C12.3175 95.3508 12.0293 95.6211 12.5074 95.7412L16.9271 96.8501C17.5947 98.8911 18.5938 100.776 19.858 102.452C18.3176 106.53 17.9209 106.71 18.2928 107.02C22.4404 110.348 22.4636 110.771 22.8947 110.522Z" fill="url(#paint21_linear_218_447)"/>
<path d="M30.9339 92.5363C29.99 89.8128 31.4925 86.8431 34.2832 85.9166C37.0739 84.9908 40.1123 86.4518 41.0564 89.1752C42.0001 91.8987 40.4978 94.8683 37.7071 95.7951C34.9157 96.7221 31.8776 95.2591 30.9339 92.5363ZM34.5892 86.7993C32.324 87.5513 31.0515 89.9656 31.8385 92.2359C32.6137 94.4727 35.1093 95.674 37.4011 94.9123C39.6931 94.1512 40.9272 91.7123 40.1518 89.4755C39.3754 87.2354 36.8769 86.0391 34.5892 86.7993Z" fill="url(#paint22_linear_218_447)"/>
<path d="M36.5833 104.13C35.7942 104.161 35.0042 104.126 34.2275 104.026C33.9939 103.996 33.8227 103.806 33.8138 103.583C33.8128 103.557 33.814 103.53 33.8177 103.503C33.8528 103.247 34.0939 103.068 34.3544 103.102C35.2478 103.217 36.1607 103.239 37.0676 103.168C43.8986 102.628 49.0592 96.8963 48.7986 90.2697C48.7919 90.1005 48.7817 89.9306 48.768 89.7604C48.2106 82.8788 42.0532 77.8087 35.0587 78.359C28.0746 78.9104 22.8058 84.9027 23.3584 91.7666C23.6896 95.8519 25.7459 97.8177 25.7627 98.2456C25.7809 98.7079 25.1707 98.911 24.8969 98.5359C23.4003 96.487 22.4796 93.984 22.3737 91.2942C21.9173 79.688 35.9123 73.0509 44.9564 80.5728C47.7397 82.8875 49.4313 86.1237 49.7195 89.6854C49.7345 89.8697 49.7455 90.0537 49.753 90.2375C49.8857 93.6032 48.7357 96.8482 46.4832 99.4295C44.1077 102.151 40.7905 103.809 37.1427 104.097C36.9564 104.112 36.7698 104.123 36.5833 104.13Z" fill="url(#paint23_linear_218_447)"/>
<path d="M62.7951 68.5441C63.8892 69.0013 65.0641 69.2876 66.2813 69.3741L67.4783 71.6096C67.611 71.8577 67.7761 71.6517 70.7029 71.235C70.9714 71.1918 70.8362 70.9896 71.3121 68.5676C72.4412 68.1049 73.4674 67.4658 74.3633 66.6895L76.7936 67.4252C77.0636 67.5067 77.0339 67.2445 78.8085 64.8823C78.8607 64.8103 78.8613 64.713 78.8102 64.6404L77.3504 62.5646C77.808 61.4717 78.0945 60.2979 78.1811 59.0818C80.2957 57.8944 80.5703 57.9424 80.5265 57.6691C79.9963 54.7023 80.1438 54.5393 79.8738 54.4922L77.3738 54.0559C76.9108 52.9279 76.2711 51.9026 75.494 51.0075L76.2304 48.5796C76.3121 48.3103 76.0495 48.3395 73.6851 46.5667C73.4659 46.4079 73.4261 46.6399 71.3651 48.0235C70.2711 47.5662 69.0961 47.28 67.8789 47.1935L66.6819 44.9579C66.5489 44.7096 66.384 44.916 63.4573 45.3327C63.1902 45.3754 63.3265 45.5658 62.8482 48.0001C61.719 48.4627 60.6928 49.1018 59.797 49.8781L57.3667 49.1424C57.2815 49.1166 57.1893 49.1478 57.1371 49.2197L55.3518 51.6853C55.2997 51.7573 55.299 51.8545 55.3501 51.9273L56.81 54.0031C56.3523 55.0961 56.0658 56.2699 55.9793 57.486C53.8647 58.6733 53.5899 58.6254 53.6341 58.8987C54.164 61.8642 54.0165 62.0283 54.2867 62.0756L56.7866 62.5118C57.2497 63.6398 57.8893 64.6651 58.6664 65.5602C58.0115 67.8935 57.7822 68.0547 58.0073 68.2175L60.4753 70.001C60.6957 70.1603 60.7446 69.9205 62.7951 68.5441Z" fill="url(#paint24_linear_218_447)"/>
<path d="M64.1607 59.539C63.4664 57.927 64.2099 56.0609 65.8238 55.3672C67.4368 54.6737 69.3051 55.4164 69.9995 57.0285C70.6921 58.6367 69.9462 60.5082 68.3364 61.2004C66.7266 61.8924 64.8537 61.1475 64.1607 59.539ZM65.0307 59.1647C65.5174 60.2937 66.8325 60.8166 67.9619 60.3313C69.7763 59.551 69.7473 56.946 67.9056 56.2131C66.0721 55.4837 64.2448 57.3403 65.0307 59.1647Z" fill="url(#paint25_linear_218_447)"/>
<path d="M55.0231 69.7496C54.7287 69.441 54.4426 69.1164 54.1724 68.7845C54.0623 68.6493 54.0827 68.4507 54.2181 68.3407C54.5586 68.064 54.7215 68.5182 55.4804 69.3144C55.6008 69.4406 55.5958 69.6402 55.4695 69.7604C55.3439 69.8801 55.144 69.8763 55.0231 69.7496Z" fill="#91B3FA"/>
<path d="M51.9464 65.2014C51.5977 64.4397 51.2909 63.618 51.0503 62.762C50.9371 62.3594 51.5456 62.1909 51.6583 62.5913C52.2819 64.8091 52.8455 65.138 52.3648 65.3573C52.2047 65.4301 52.0185 65.359 51.9464 65.2014ZM50.7563 58.8992C50.5819 58.9023 50.438 58.7638 50.4347 58.5895C50.4191 57.7255 50.4717 56.8526 50.5917 55.9949C50.6498 55.5818 51.275 55.6687 51.2173 56.0822C51.102 56.9072 51.0511 57.7468 51.0663 58.5779C51.0717 58.8839 50.7219 58.9156 50.7563 58.8992ZM52.0031 52.3631C51.9589 52.3649 51.9136 52.3573 51.8703 52.3395C51.7091 52.2729 51.6325 52.0885 51.6989 51.9274C52.0297 51.1278 52.4259 50.3482 52.8764 49.6104C52.9672 49.462 53.1619 49.4148 53.3103 49.5054C53.4592 49.596 53.5064 49.7903 53.4155 49.9389C52.982 50.6489 52.601 51.399 52.2828 52.1684C52.234 52.2859 52.1225 52.3584 52.0031 52.3631ZM55.7442 46.8612C55.6574 46.8646 55.5696 46.8324 55.5047 46.7651C55.3834 46.64 55.3868 46.4401 55.5123 46.3191C56.1345 45.7181 56.8098 45.1618 57.5193 44.6656C57.6624 44.5658 57.8591 44.6004 57.9592 44.7432C58.0591 44.8859 58.0243 45.0826 57.8814 45.1826C57.1991 45.6597 56.5495 46.1947 55.951 46.7727C55.8931 46.8288 55.8189 46.8582 55.7442 46.8612ZM61.069 43.11C61.008 42.9468 61.0906 42.7649 61.2539 42.7038C62.0672 42.3995 62.9082 42.1573 63.7538 41.9841C64.1612 41.8987 64.291 42.518 63.8807 42.6022C63.0673 42.7688 62.2581 43.0017 61.4757 43.2946C61.3081 43.3568 61.1291 43.2698 61.069 43.11Z" fill="#91B3FA"/>
<path d="M69.1774 42.4188C68.029 42.2661 67.6237 42.3964 67.647 41.9707C67.6565 41.7967 67.8012 41.6624 67.9795 41.6727C68.4042 41.6957 68.8353 41.7362 69.2608 41.7928C69.4336 41.8158 69.5551 41.9746 69.5321 42.1475C69.5095 42.3177 69.3539 42.4414 69.1774 42.4188Z" fill="#91B3FA"/>
<path d="M80.3091 49.2596C79.6542 48.2997 79.2887 48.0878 79.6216 47.8215C79.7579 47.7124 79.9564 47.7346 80.0654 47.8704C80.3317 48.2021 80.5893 48.55 80.8308 48.9043C80.9291 49.0483 80.8919 49.2446 80.7478 49.3426C80.6043 49.4406 80.4074 49.4038 80.3091 49.2596Z" fill="url(#paint26_linear_218_447)"/>
<path d="M69.2188 74.4605C69.1395 73.9426 69.7052 74.2297 71.8807 73.5438C72.2777 73.4178 72.4701 74.0196 72.0708 74.1456C71.2573 74.4019 70.4187 74.5968 69.5786 74.7247C69.4091 74.7511 69.2454 74.6351 69.2188 74.4605ZM75.4096 72.3174C75.3181 72.1692 75.364 71.9748 75.5125 71.8832C77.4701 70.676 77.6026 70.0693 77.9452 70.4686C78.0586 70.601 78.0431 70.8002 77.9108 70.9135C77.2645 71.4661 76.5693 71.9731 75.8441 72.4203C75.6956 72.5117 75.5013 72.4656 75.4096 72.3174ZM80.2601 67.921C79.8297 67.619 80.4256 67.4156 81.4377 65.3663C81.6228 64.9925 82.1892 65.271 82.0042 65.6456C81.6269 66.4091 81.1882 67.1489 80.6999 67.8438C80.5999 67.9863 80.403 68.0211 80.2601 67.921ZM82.9904 61.9716C82.4748 61.8619 82.9456 61.4409 83.0732 59.1602C83.0964 58.744 83.7271 58.7781 83.7038 59.1952C83.6564 60.0436 83.5424 60.8959 83.365 61.7287C83.3286 61.8995 83.1606 62.0076 82.9904 61.9716ZM82.7938 55.1806C82.3464 52.928 81.8228 52.5886 82.3185 52.4082C82.4825 52.3483 82.6635 52.4327 82.7234 52.5965C83.016 53.3981 83.2481 54.2261 83.4132 55.058C83.4471 55.2288 83.3361 55.3949 83.1648 55.4287C82.9942 55.4625 82.8278 55.3518 82.7938 55.1806Z" fill="url(#paint27_linear_218_447)"/>
<path d="M65.4129 74.829C64.9875 74.7857 64.5588 74.7254 64.1388 74.6497C63.9673 74.6186 63.8532 74.4544 63.8841 74.2827C63.9622 73.8507 64.38 74.0893 65.4768 74.2007C65.6503 74.2184 65.7766 74.3733 65.7591 74.5468C65.7412 74.7227 65.5833 74.8466 65.4129 74.829Z" fill="url(#paint28_linear_218_447)"/>
<path d="M66.7089 66.0353C66.4097 66.0209 66.2293 65.7829 66.2425 65.5366C66.2565 65.2755 66.4818 65.0747 66.7407 65.0892C67.2257 65.115 67.7177 65.0889 68.2032 65.0112C68.3 64.9757 70.8806 64.7393 72.6849 62.2549C76.2586 57.3189 72.0512 50.4784 66.0241 51.4456C62.5564 52.0016 60.1071 55.0721 60.2421 58.4942C60.3778 61.9408 62.5736 62.6527 61.7879 63.3118C61.5878 63.4801 61.2891 63.4543 61.1206 63.2541C60.2123 62.1753 59.6136 60.8657 59.3891 59.4668C58.7059 55.2192 61.6084 51.1952 65.8741 50.5111C70.4641 49.7747 74.7464 53.204 74.9327 57.937C75.0832 61.7543 72.3748 65.301 68.3532 65.9457H68.3531C67.8088 66.0327 67.2555 66.063 66.7089 66.0353Z" fill="url(#paint29_linear_218_447)"/>
<defs>
<linearGradient id="paint0_linear_218_447" x1="285.896" y1="328.967" x2="59.9185" y2="48.1151" gradientUnits="userSpaceOnUse">
<stop stop-color="#55BD51"/>
<stop offset="1" stop-color="#8CDF75" stop-opacity="0.7"/>
</linearGradient>
<linearGradient id="paint1_linear_218_447" x1="47.4594" y1="146.14" x2="196.084" y2="146.14" gradientUnits="userSpaceOnUse">
<stop stop-color="#22241E"/>
<stop offset="1" stop-color="#32342D"/>
</linearGradient>
<linearGradient id="paint2_linear_218_447" x1="159.481" y1="50.6654" x2="73.432" y2="247.345" gradientUnits="userSpaceOnUse">
<stop stop-color="#53D8FF"/>
<stop offset="1" stop-color="#3840F7"/>
</linearGradient>
<linearGradient id="paint3_linear_218_447" x1="103.405" y1="28.9118" x2="102.574" y2="109.606" gradientUnits="userSpaceOnUse">
<stop stop-color="#D974E6"/>
<stop offset="1" stop-color="#D974E6" stop-opacity="0.6"/>
</linearGradient>
<linearGradient id="paint4_linear_218_447" x1="55.0392" y1="158.684" x2="85.3465" y2="119.283" gradientUnits="userSpaceOnUse">
<stop stop-color="#FEBBBA"/>
<stop offset="1" stop-color="#FF928E"/>
</linearGradient>
<linearGradient id="paint5_linear_218_447" x1="49.8115" y1="278.608" x2="40.1437" y2="165.506" gradientUnits="userSpaceOnUse">
<stop stop-color="#FEBBBA"/>
<stop offset="1" stop-color="#FF928E"/>
</linearGradient>
<linearGradient id="paint6_linear_218_447" x1="52.6412" y1="250.863" x2="41.75" y2="250.863" gradientUnits="userSpaceOnUse">
<stop/>
<stop offset="1"/>
</linearGradient>
<linearGradient id="paint7_linear_218_447" x1="30.3268" y1="280.291" x2="20.6564" y2="167.16" gradientUnits="userSpaceOnUse">
<stop stop-color="#FEBBBA"/>
<stop offset="1" stop-color="#FF928E"/>
</linearGradient>
<linearGradient id="paint8_linear_218_447" x1="16.6847" y1="238.676" x2="47.4446" y2="168.776" gradientUnits="userSpaceOnUse">
<stop stop-color="#D974E6" stop-opacity="0.6"/>
<stop offset="1" stop-color="#D974E6"/>
</linearGradient>
<linearGradient id="paint9_linear_218_447" x1="50.6958" y1="130.764" x2="47.5564" y2="161.449" gradientUnits="userSpaceOnUse">
<stop stop-color="#FEBBBA"/>
<stop offset="1" stop-color="#FF928E"/>
</linearGradient>
<linearGradient id="paint10_linear_218_447" x1="54.1137" y1="151.11" x2="44.048" y2="120.334" gradientUnits="userSpaceOnUse">
<stop stop-color="#FEBBBA"/>
<stop offset="1" stop-color="#FF928E"/>
</linearGradient>
<linearGradient id="paint11_linear_218_447" x1="12.8725" y1="168.125" x2="43.4938" y2="140.846" gradientUnits="userSpaceOnUse">
<stop stop-color="#F2F1A0"/>
<stop offset="1" stop-color="#F2F1B6"/>
</linearGradient>
<linearGradient id="paint12_linear_218_447" x1="50.4298" y1="152.315" x2="40.3642" y2="121.54" gradientUnits="userSpaceOnUse">
<stop stop-color="#FEBBBA"/>
<stop offset="1" stop-color="#FF928E"/>
</linearGradient>
<linearGradient id="paint13_linear_218_447" x1="56.9343" y1="160.142" x2="87.2417" y2="120.741" gradientUnits="userSpaceOnUse">
<stop stop-color="#FEBBBA"/>
<stop offset="1" stop-color="#FF928E"/>
</linearGradient>
<linearGradient id="paint14_linear_218_447" x1="79.9396" y1="127.141" x2="82.7097" y2="108.471" gradientUnits="userSpaceOnUse">
<stop stop-color="#FEBBBA"/>
<stop offset="1" stop-color="#FF928E"/>
</linearGradient>
<linearGradient id="paint15_linear_218_447" x1="12.6972" y1="177.402" x2="45.0112" y2="177.402" gradientUnits="userSpaceOnUse">
<stop stop-color="#FEBBBA"/>
<stop offset="1" stop-color="#FF928E"/>
</linearGradient>
<linearGradient id="paint16_linear_218_447" x1="188.088" y1="-18.8679" x2="18.5082" y2="260.71" gradientUnits="userSpaceOnUse">
<stop stop-color="#D974E6"/>
<stop offset="1" stop-color="#D974E6" stop-opacity="0.6"/>
</linearGradient>
<linearGradient id="paint17_linear_218_447" x1="201.052" y1="-11.0045" x2="31.4721" y2="268.573" gradientUnits="userSpaceOnUse">
<stop stop-color="#D974E6"/>
<stop offset="1" stop-color="#D974E6"/>
</linearGradient>
<linearGradient id="paint18_linear_218_447" x1="64.7407" y1="80.2784" x2="65.8252" y2="80.2784" gradientUnits="userSpaceOnUse">
<stop stop-color="#DAE3FE"/>
<stop offset="1" stop-color="#E9EFFD"/>
</linearGradient>
<linearGradient id="paint19_linear_218_447" x1="26.5957" y1="103.256" x2="67.6072" y2="103.256" gradientUnits="userSpaceOnUse">
<stop stop-color="#DAE3FE"/>
<stop offset="1" stop-color="#E9EFFD"/>
</linearGradient>
<linearGradient id="paint20_linear_218_447" x1="21.4392" y1="118.577" x2="23.2252" y2="118.577" gradientUnits="userSpaceOnUse">
<stop stop-color="#DAE3FE"/>
<stop offset="1" stop-color="#E9EFFD"/>
</linearGradient>
<linearGradient id="paint21_linear_218_447" x1="11.7933" y1="90.8556" x2="60.1959" y2="90.8556" gradientUnits="userSpaceOnUse">
<stop stop-color="#FF928E"/>
<stop offset="1" stop-color="#E36864"/>
</linearGradient>
<linearGradient id="paint22_linear_218_447" x1="30.6518" y1="90.856" x2="41.3384" y2="90.856" gradientUnits="userSpaceOnUse">
<stop stop-color="#DAE3FE"/>
<stop offset="1" stop-color="#E9EFFD"/>
</linearGradient>
<linearGradient id="paint23_linear_218_447" x1="22.3627" y1="90.7588" x2="49.7633" y2="90.7588" gradientUnits="userSpaceOnUse">
<stop stop-color="#DAE3FE"/>
<stop offset="1" stop-color="#E9EFFD"/>
</linearGradient>
<linearGradient id="paint24_linear_218_447" x1="53.6297" y1="58.2837" x2="80.5306" y2="58.2837" gradientUnits="userSpaceOnUse">
<stop stop-color="#FF928E"/>
<stop offset="1" stop-color="#E36864"/>
</linearGradient>
<linearGradient id="paint25_linear_218_447" x1="63.9006" y1="58.2832" x2="70.2583" y2="58.2832" gradientUnits="userSpaceOnUse">
<stop stop-color="#DAE3FE"/>
<stop offset="1" stop-color="#E9EFFD"/>
</linearGradient>
<linearGradient id="paint26_linear_218_447" x1="79.4963" y1="48.5748" x2="80.8857" y2="48.5748" gradientUnits="userSpaceOnUse">
<stop stop-color="#DAE3FE"/>
<stop offset="1" stop-color="#E9EFFD"/>
</linearGradient>
<linearGradient id="paint27_linear_218_447" x1="69.2117" y1="63.5587" x2="83.7045" y2="63.5587" gradientUnits="userSpaceOnUse">
<stop stop-color="#DAE3FE"/>
<stop offset="1" stop-color="#E9EFFD"/>
</linearGradient>
<linearGradient id="paint28_linear_218_447" x1="63.879" y1="74.4323" x2="65.7607" y2="74.4323" gradientUnits="userSpaceOnUse">
<stop stop-color="#DAE3FE"/>
<stop offset="1" stop-color="#E9EFFD"/>
</linearGradient>
<linearGradient id="paint29_linear_218_447" x1="59.2894" y1="58.2283" x2="74.9386" y2="58.2283" gradientUnits="userSpaceOnUse">
<stop stop-color="#DAE3FE"/>
<stop offset="1" stop-color="#E9EFFD"/>
</linearGradient>
</defs>
</svg>
