<svg width="255" height="257" viewBox="0 0 255 257" fill="none" xmlns="http://www.w3.org/2000/svg">
<path d="M225.442 220.85C220.206 226.38 215.251 229.946 211.337 232.764C165.324 265.883 110.878 256.229 99.3063 253.871C82.2191 250.39 49.19 243.66 25.3105 215.49C-10.8172 172.87 -5.1916 105.725 22.8315 61.4011C27.9574 53.2935 55.0336 8.29471 110.066 1.07834C143.371 -3.28895 182.194 5.51938 210.309 29.148C269.323 78.7466 265.122 178.945 225.442 220.85Z" fill="url(#paint0_linear_218_528)"/>
<path d="M104.712 129.334C102.947 129.25 31.2694 162.771 28.0708 196.934C28.0708 196.934 6.34581 175.186 31.0476 149.782C55.7493 124.379 101.732 103.134 101.732 103.134L104.712 129.334Z" fill="url(#paint1_linear_218_528)"/>
<path d="M81.342 206.367C81.6396 206.5 83.3644 207.267 85.1456 206.63C95.8647 202.8 73.9443 160.525 88.9518 117.604C95.0687 100.109 104.689 90.0334 102.628 71.8079C102.253 68.4986 100.986 58.3159 94.1652 48.3511C89.8747 42.0826 86.5983 40.5916 80.8036 35.1503C62.6047 18.0611 63.9458 3.67782 55.6621 2.78986C46.4157 1.79878 32.4639 18.4026 33.5282 33.6044C34.6998 50.3389 53.3379 54.9513 52.1224 69.422C51.1768 80.6783 39.6462 80.9061 36.9496 94.4115C33.37 112.339 50.1935 129.438 52.3391 131.563C61.9092 141.041 65.5235 137.307 71.6962 144.464C88.4718 163.914 70.4184 201.509 81.342 206.367Z" fill="url(#paint2_linear_218_528)"/>
<path d="M60.6903 39.72C62.0846 40.7811 63.405 41.9198 64.671 43.125C65.9412 44.3243 67.1645 45.5768 68.33 46.8838C69.4976 48.1889 70.6267 49.5328 71.6922 50.9294C72.745 52.3346 73.7801 53.7591 74.7294 55.2446C75.2216 55.9762 75.6509 56.7475 76.1148 57.4984C76.5396 58.2722 76.9941 59.0307 77.394 59.8196C77.801 60.6047 78.2118 61.389 78.5778 62.1963C78.7639 62.5984 78.9613 62.9956 79.1381 63.4021L79.6521 64.63C80.0079 65.4435 80.2855 66.2893 80.601 67.1203C80.9008 67.9573 81.1527 68.812 81.4303 69.658C81.659 70.519 81.9121 71.3746 82.1184 72.2423L82.4088 73.5496C82.5091 73.9848 82.6043 74.4212 82.6666 74.8642C83.2817 78.3848 83.5101 81.9824 83.3189 85.5608L83.2462 86.903L83.1366 88.199L82.9162 90.7895C82.7639 92.5162 82.6418 94.2443 82.5032 95.9718C81.9734 102.883 81.5704 109.8 81.2845 116.719C80.7314 130.561 80.735 144.401 82.1353 158.189C82.7389 165.154 82.9134 172.122 82.9066 179.082C82.8914 186.042 82.672 192.995 82.2303 199.937L81.8315 199.92C81.8939 192.978 81.7876 186.034 81.5624 179.104C81.4353 175.64 81.2762 172.177 81.0472 168.723C80.8225 165.268 80.5491 161.818 80.1454 158.391C79.2674 151.5 78.7726 144.497 78.5247 137.535C78.311 130.561 78.3632 123.587 78.5591 116.622C78.7534 109.656 79.1768 102.704 79.666 95.7609C79.7981 94.0259 79.9137 92.2891 80.0593 90.5557L80.27 87.9544L80.3748 86.6546L80.4529 85.3963C80.6614 82.0413 80.4775 78.662 79.9269 75.3372C79.8109 74.5026 79.6164 73.6803 79.4658 72.85C79.2924 72.0243 79.0728 71.2079 78.8786 70.3853C78.635 69.5757 78.4183 68.7574 78.1535 67.9532C77.8728 67.1543 77.6313 66.3409 77.3109 65.5551C76.1214 62.3791 74.6815 59.279 72.9613 56.3274C72.1298 54.8343 71.2083 53.3912 70.2658 51.9602C69.3008 50.5446 68.3081 49.1437 67.2634 47.7783C65.1561 45.0675 62.912 42.4288 60.4375 40.03L60.6903 39.72Z" fill="url(#paint3_linear_218_528)"/>
<path d="M86.7712 224.638C88.2153 225.399 90.5205 225.651 91.9551 224.595C97.492 220.52 83.2596 201.976 79.2568 175.711C74.6222 145.3 87.694 130.738 75.8698 116.437C70.1833 109.559 65.3044 110.683 60.0311 102.015C52.6876 89.9445 58.5431 81.838 52.6825 72.4142C45.9421 61.576 27.7203 55.4524 15.3141 61.5327C-1.36878 69.7091 -3.058 97.7598 5.85439 112.291C11.6433 121.729 22.6553 126.686 21.3663 129.354C20.1359 131.9 10.5355 126.493 5.1312 130.699C-1.94593 136.208 -0.255917 156.98 10.1765 164.238C19.7796 170.919 35.8074 165.465 36.5655 168.729C36.8637 170.012 34.3841 170.862 34.2901 172.487C34.1224 175.387 41.6261 179.468 68.6641 185.281C75.9875 189.972 79.2986 195.032 80.9638 198.859C85.8767 210.149 81.2623 221.734 86.7712 224.638Z" fill="url(#paint4_linear_218_528)"/>
<path d="M29.7163 83.634C29.9073 89.98 30.6958 96.2744 32.2253 102.37C33.7438 108.47 36.008 114.329 38.981 119.816C40.476 122.556 42.1147 125.224 43.8469 127.841C44.7396 129.137 45.6078 130.444 46.5326 131.725C47.4344 133.016 48.3502 134.306 49.2729 135.591L54.8297 143.331L56.2086 145.282L57.5577 147.258C58.4645 148.57 59.3382 149.907 60.2188 151.239C61.9796 153.902 63.6685 156.613 65.3276 159.342C66.1446 160.713 66.9706 162.08 67.7494 163.474L68.9333 165.555L70.0874 167.653L71.2363 169.754L72.3497 171.875L73.4604 173.996L74.5319 176.138L75.5907 178.286L76.6056 180.456C77.2814 181.903 77.9648 183.345 78.592 184.815L79.5533 187.009L80.0337 188.105L80.4865 189.215C81.0764 190.7 81.6831 192.176 82.258 193.666L83.9092 198.163C84.4498 199.666 84.9212 201.194 85.4189 202.71C87.3341 208.802 88.9001 215.008 89.9007 221.301L89.5557 221.37C88.0216 215.205 86.1104 209.164 83.8958 203.241L83.0414 201.029C82.7525 200.293 82.4987 199.546 82.1828 198.82L80.3589 194.445C79.0716 191.558 77.7883 188.673 76.4098 185.83C75.7455 184.397 75.0249 182.991 74.3125 181.582L73.2431 179.469L72.1301 177.378L71.0299 175.28L69.8919 173.203L68.7518 171.128L67.5767 169.071C64.4257 163.599 61.1413 158.205 57.6404 152.953C54.1388 147.704 50.4616 142.569 46.7877 137.372C45.8719 136.071 44.9522 134.771 44.0577 133.446C43.1542 132.132 42.2953 130.774 41.4185 129.435C39.7139 126.715 38.0712 123.941 36.6156 121.056C36.2558 120.333 35.9266 119.594 35.5813 118.864L35.0716 117.765L34.6096 116.643C34.3076 115.893 33.9815 115.154 33.7006 114.396L32.8884 112.112C32.5996 111.358 32.394 110.575 32.1637 109.802L31.8246 108.64C31.7105 108.253 31.5949 107.867 31.5092 107.473C31.1423 105.903 30.7367 104.345 30.4437 102.763C29.2583 96.4408 28.8748 89.9865 29.365 83.6257L29.7163 83.634Z" fill="url(#paint5_linear_218_528)"/>
<path d="M203.005 90.0648L204.663 102.876C204.895 104.667 203.598 110.951 205.327 111.451C209.662 112.704 220.452 108.994 225.322 101.366C230.281 93.6005 229.983 71.7703 219.629 70.5079C215.955 70.0599 221.016 79.5879 205.898 85.2173C203.927 85.9515 202.734 87.9714 203.005 90.0648Z" fill="url(#paint6_linear_218_528)"/>
<path d="M72.5348 28.2148L194.609 27.7359C201.344 27.7095 206.918 32.9859 207.287 39.7368L216.989 217.373C217.278 222.655 213.152 227.128 207.883 227.245L67.98 230.347C63.0291 230.457 58.9513 226.468 58.932 221.497L58.236 42.6816C58.205 34.7229 64.6067 28.2459 72.5348 28.2148Z" fill="url(#paint7_linear_218_528)"/>
<path d="M88.4153 227.206C88.4144 227.206 88.4135 227.206 88.4128 227.206L72.7563 227.064C67.5432 227.017 63.2856 222.721 63.2652 217.487L63.1727 193.759C63.1722 193.595 63.3033 193.463 63.4657 193.462C63.4661 193.462 63.4664 193.462 63.4668 193.462C63.6287 193.462 63.7604 193.594 63.7609 193.756L63.8534 217.485C63.8725 222.397 67.8688 226.429 72.7617 226.474L88.4181 226.616C88.5805 226.617 88.7109 226.75 88.7095 226.913C88.708 227.076 88.5766 227.206 88.4153 227.206Z" fill="white"/>
<path d="M63.4382 186.703C63.2762 186.703 63.1447 186.571 63.1441 186.408L63.1292 182.566C63.1285 182.403 63.2597 182.27 63.4221 182.27C63.4225 182.27 63.423 182.27 63.4232 182.27C63.5852 182.27 63.7167 182.401 63.7173 182.564L63.7323 186.406C63.7328 186.569 63.6017 186.702 63.4393 186.703C63.4389 186.703 63.4385 186.703 63.4382 186.703Z" fill="white"/>
<path d="M72.9045 26.7731C89.5838 28.9771 146.936 35.7712 194.318 31.9329C196.478 31.7578 198.361 33.3945 198.484 35.5671L208.627 213.993C208.766 216.44 206.913 218.54 204.477 218.694C184.548 219.956 102.472 224.856 73.1785 221.892C71.3956 221.712 70.037 220.211 70.0195 218.412L68.1914 30.9665C68.1666 28.4203 70.3897 26.4407 72.9045 26.7731Z" fill="url(#paint8_linear_218_528)"/>
<path opacity="0.6" d="M74.7081 31.3952C90.7592 33.5163 145.952 40.0545 191.549 36.3607C193.629 36.1923 195.44 37.7673 195.559 39.8581L205.32 211.566C205.454 213.92 203.671 215.941 201.326 216.089C182.147 217.304 103.162 222.02 74.972 219.167C73.2563 218.994 71.9488 217.549 71.932 215.818L70.1727 35.4309C70.1487 32.9804 72.2879 31.0754 74.7081 31.3952Z" fill="white"/>
<g opacity="0.6">
<path d="M186.599 70.3729C187.246 70.3703 187.739 69.8382 187.694 69.1902L187.686 69.0765C187.64 68.4286 187.074 67.8964 186.427 67.8938L82.7711 67.4802C82.1241 67.4777 81.9261 67.89 82.3311 68.3965L83.4961 69.8535C83.901 70.36 84.7617 70.7724 85.4087 70.7698L186.599 70.3729Z" fill="white"/>
</g>
<g opacity="0.6">
<path d="M82.7979 74.3443C82.1509 74.3417 81.9529 74.754 82.3579 75.2605L83.5228 76.7175C83.9278 77.224 84.7885 77.6364 85.4355 77.6338L186.626 77.2369C187.273 77.2343 187.765 76.7022 187.72 76.0542L187.712 75.9405C187.667 75.2926 187.101 74.7604 186.454 74.7578L82.7979 74.3443Z" fill="white"/>
</g>
<path d="M90.2225 92.7931C90.22 92.7931 90.2175 92.7931 90.2152 92.7931L86.3137 92.7709C85.683 92.7673 85.1601 92.3286 85.0973 91.7505L84.7416 88.4657C84.7163 88.2335 84.7868 88.0042 84.9399 87.8198C85.108 87.6175 85.3618 87.4899 85.6363 87.4698C85.9648 87.446 86.4169 87.4055 86.9143 87.3609C88.0024 87.2637 89.2354 87.1534 89.9634 87.1415C90.5421 87.1285 91.0576 87.4892 91.2002 88.0109C91.4115 88.7835 91.3994 90.2228 91.3665 91.7551C91.3542 92.3287 90.8416 92.7931 90.2225 92.7931ZM85.6788 88.0588C85.5626 88.0672 85.4581 88.1179 85.3916 88.1978C85.3563 88.2405 85.3163 88.3102 85.3262 88.4018L85.6819 91.6866C85.7122 91.9663 85.9854 92.1786 86.317 92.1804L90.2185 92.2026C90.2198 92.2026 90.2211 92.2026 90.2224 92.2026C90.5239 92.2026 90.773 91.9969 90.7782 91.7423C90.8025 90.6187 90.8391 88.9207 90.6329 88.1671C90.5627 87.9099 90.2979 87.7251 89.9728 87.7319C89.2662 87.7434 87.9911 87.8575 86.9665 87.9491C86.4652 87.994 86.0096 88.0348 85.6788 88.0588Z" fill="white"/>
<g opacity="0.6">
<path d="M94.4941 89.2266C93.8471 89.2272 93.4351 89.6676 93.5787 90.2052C93.7221 90.7429 94.3688 91.1752 95.0158 91.1658L129.326 90.6708C129.973 90.6615 130.494 90.3251 130.484 89.9234C130.473 89.5217 129.935 89.1935 129.288 89.1941L94.4941 89.2266Z" fill="white"/>
</g>
<path d="M86.2574 88.7664C86.5464 88.5946 86.9195 88.695 87.0843 88.9888L87.8592 90.3706C87.9367 90.5088 88.1382 90.4993 88.2024 90.3543L90.0944 86.0812C90.1887 85.8681 90.5047 85.9388 90.5021 86.172C90.4877 87.4768 90.1525 89.9583 88.0839 92.0425C88.0839 92.0425 86.9377 91.6003 86.0081 89.5724C85.8739 89.2794 85.981 88.9307 86.2574 88.7664Z" fill="url(#paint9_linear_218_528)"/>
<path d="M90.255 101.187C90.2526 101.187 90.2502 101.187 90.2477 101.187L86.3462 101.165C85.7155 101.161 85.1924 100.722 85.1299 100.144L84.7742 96.8595C84.749 96.6273 84.8196 96.3978 84.9729 96.2133C85.141 96.0111 85.3946 95.8836 85.6691 95.8638C85.9973 95.84 86.4496 95.7994 86.947 95.7549C88.035 95.6576 89.268 95.5473 89.9961 95.5353C90.5752 95.5269 91.0901 95.8833 91.2329 96.4045C91.4443 97.1774 91.4321 98.6167 91.3992 100.149C91.3867 100.723 90.8741 101.187 90.255 101.187ZM85.7112 96.4527C85.5953 96.4611 85.4908 96.5116 85.4245 96.5915C85.389 96.6342 85.3489 96.7041 85.3589 96.7958L85.7147 100.08C85.745 100.36 86.0178 100.572 86.3497 100.574L90.2511 100.596C90.5636 100.606 90.8057 100.392 90.8111 100.136C90.8353 99.0125 90.872 97.3145 90.6657 96.5609C90.5954 96.3038 90.3301 96.1122 90.0055 96.1257C89.2988 96.1372 88.0238 96.2513 86.9992 96.3429C86.4979 96.3877 86.0423 96.4286 85.7114 96.4526L85.7112 96.4527Z" fill="white"/>
<path opacity="0.6" d="M86.122 96.6456C86.9413 96.5861 88.7219 96.3975 89.5667 96.3837C89.9247 96.3777 90.2395 96.5936 90.3247 96.9049C90.4901 97.5095 90.4732 98.7159 90.4492 99.8295C90.442 100.163 90.138 100.43 89.7655 100.428L86.6477 100.41C86.2643 100.408 85.945 100.147 85.908 99.8053L85.6237 97.1805C85.5943 96.9091 85.8183 96.6676 86.122 96.6456Z" fill="white"/>
<g opacity="0.6">
<path d="M94.5268 97.6206C93.8799 97.6213 93.4679 98.0617 93.6114 98.5993C93.7549 99.1369 94.4016 99.5692 95.0485 99.5599L129.359 99.0649C130.006 99.0555 130.527 98.7192 130.516 98.3175C130.506 97.9158 129.968 97.5875 129.321 97.5881L94.5268 97.6206Z" fill="white"/>
</g>
<path d="M90.2878 109.581C90.2853 109.581 90.2828 109.581 90.2805 109.581L86.379 109.558C85.7481 109.555 85.2252 109.116 85.1627 108.538L84.8069 105.253C84.7816 105.021 84.8522 104.792 85.0054 104.607C85.1735 104.405 85.4273 104.277 85.7018 104.258C86.0303 104.234 86.483 104.193 86.981 104.149C88.0684 104.051 89.301 103.941 90.0286 103.929C90.6179 103.922 91.1228 104.277 91.2655 104.799C91.4769 105.571 91.4647 107.01 91.4318 108.543C91.4195 109.116 90.9069 109.581 90.2878 109.581ZM85.744 104.847C85.628 104.855 85.5234 104.906 85.4571 104.985C85.4218 105.028 85.3817 105.098 85.3916 105.19L85.7474 108.474C85.7777 108.754 86.0506 108.966 86.3824 108.968L90.2839 108.99C90.2852 108.99 90.2864 108.99 90.2878 108.99C90.5893 108.99 90.8383 108.785 90.8436 108.53C90.8679 107.406 90.9045 105.708 90.6983 104.955C90.628 104.698 90.3623 104.51 90.0382 104.52C89.332 104.531 88.0573 104.645 87.0331 104.737C86.5313 104.782 86.0753 104.822 85.7442 104.847H85.744V104.847Z" fill="white"/>
<path opacity="0.6" d="M86.1546 105.04C86.974 104.98 88.7545 104.792 89.5993 104.778C89.9573 104.772 90.2721 104.988 90.3573 105.299C90.5227 105.904 90.5058 107.11 90.4818 108.224C90.4747 108.557 90.1706 108.825 89.7981 108.822L86.6803 108.805C86.2969 108.802 85.9776 108.541 85.9406 108.2L85.6563 105.575C85.6269 105.303 85.8509 105.062 86.1546 105.04Z" fill="white"/>
<g opacity="0.6">
<path d="M94.5595 106.014C93.9125 106.015 93.5006 106.455 93.6441 106.993C93.7875 107.531 94.4342 107.963 95.0812 107.954L129.391 107.459C130.038 107.449 130.559 107.113 130.549 106.711C130.539 106.31 130.001 105.981 129.354 105.982L94.5595 106.014Z" fill="white"/>
</g>
<path d="M90.3201 117.975C90.3178 117.975 90.3155 117.975 90.3132 117.975L86.4115 117.953C85.7807 117.949 85.2578 117.51 85.1953 116.932L84.8394 113.647C84.8143 113.415 84.8848 113.186 85.0381 113.001C85.2062 112.799 85.4599 112.672 85.7343 112.652C86.0618 112.628 86.5129 112.588 87.0091 112.543C88.0981 112.446 89.3325 112.335 90.0612 112.323C90.6412 112.314 91.1552 112.671 91.2981 113.193C91.5094 113.965 91.4973 115.405 91.4643 116.937C91.452 117.511 90.9393 117.975 90.3201 117.975ZM90.0835 112.913C90.0793 112.913 90.0751 112.913 90.071 112.914C89.3636 112.925 88.087 113.039 87.0613 113.131C86.5614 113.176 86.1068 113.217 85.7767 113.241H85.7766C85.6606 113.249 85.5561 113.3 85.4898 113.379C85.4543 113.422 85.4143 113.492 85.4242 113.584L85.78 116.868C85.8103 117.148 86.0831 117.36 86.415 117.362L90.3165 117.384C90.3176 117.384 90.3189 117.384 90.3201 117.384C90.6217 117.384 90.8709 117.179 90.8764 116.924C90.9007 115.801 90.9373 114.103 90.731 113.349C90.6615 113.095 90.3903 112.913 90.0835 112.913Z" fill="white"/>
<path opacity="0.6" d="M86.1873 113.434C87.0066 113.374 88.7872 113.186 89.6321 113.172C89.99 113.166 90.3048 113.382 90.39 113.693C90.5555 114.298 90.5385 115.504 90.5146 116.618C90.5073 116.951 90.2033 117.218 89.8308 117.216L86.7131 117.198C86.3296 117.196 86.0103 116.935 85.9733 116.593L85.689 113.969C85.6594 113.697 85.8836 113.456 86.1873 113.434Z" fill="white"/>
<g opacity="0.6">
<path d="M94.5922 114.408C93.9452 114.409 93.5332 114.85 93.6767 115.387C93.8202 115.925 94.4669 116.357 95.1139 116.348L129.424 115.853C130.071 115.843 130.592 115.507 130.582 115.105C130.571 114.704 130.033 114.375 129.387 114.376L94.5922 114.408Z" fill="white"/>
</g>
<path d="M146.568 91.6262C146.566 91.6262 146.564 91.6262 146.561 91.6262L142.66 91.6038C142.029 91.6002 141.506 91.1616 141.443 90.5834L141.088 87.2988C141.062 87.0664 141.133 86.8369 141.286 86.6526C141.454 86.4503 141.708 86.3229 141.982 86.303C142.31 86.2792 142.761 86.2389 143.257 86.1945C144.346 86.097 145.581 85.9865 146.309 85.9745C146.892 85.9571 147.404 86.3224 147.546 86.8439C147.757 87.6156 147.745 89.0553 147.713 90.5881C147.7 91.1618 147.187 91.6262 146.568 91.6262ZM146.332 86.5647C146.328 86.5647 146.323 86.5647 146.319 86.5649C145.612 86.5764 144.335 86.6907 143.309 86.7826C142.81 86.8273 142.355 86.8679 142.025 86.892C141.909 86.9003 141.804 86.9509 141.738 87.0308C141.703 87.0733 141.663 87.1433 141.672 87.2351L142.028 90.5197C142.058 90.7992 142.331 91.0115 142.663 91.0134L146.565 91.0357C146.566 91.0357 146.567 91.0357 146.568 91.0357C146.87 91.0357 147.119 90.8299 147.125 90.5752C147.149 89.4514 147.185 87.753 146.979 87.0002C146.91 86.7463 146.639 86.5647 146.332 86.5647Z" fill="white"/>
<g opacity="0.6">
<path d="M150.84 88.0599C150.193 88.0605 149.781 88.5009 149.925 89.0385C150.068 89.5762 150.715 90.0084 151.362 89.9991L185.672 89.5042C186.319 89.4948 186.84 89.1585 186.83 88.7567C186.819 88.3549 186.281 88.0267 185.634 88.0273L150.84 88.0599Z" fill="white"/>
</g>
<path d="M146.601 100.02C146.599 100.02 146.596 100.02 146.594 100.02L142.692 99.9979C142.062 99.9943 141.539 99.5557 141.476 98.9775L141.12 95.6927C141.095 95.4605 141.166 95.2311 141.319 95.0468C141.487 94.8443 141.741 94.7169 142.015 94.6969C142.344 94.6732 142.796 94.6326 143.293 94.5881C144.381 94.4908 145.614 94.3805 146.342 94.3685C146.925 94.3557 147.437 94.7164 147.579 95.2379C147.79 96.0105 147.778 97.4499 147.745 98.9821C147.733 99.5559 147.22 100.02 146.601 100.02ZM142.058 95.2859C141.941 95.2943 141.837 95.345 141.77 95.4249C141.735 95.4676 141.695 95.5375 141.705 95.629L142.061 98.9138C142.091 99.1933 142.364 99.4056 142.696 99.4075L146.597 99.4297C146.599 99.4297 146.6 99.4297 146.601 99.4297C146.903 99.4297 147.152 99.2238 147.157 98.9692C147.181 97.8457 147.218 96.1477 147.012 95.3941C146.942 95.1404 146.671 94.9588 146.364 94.9588C146.36 94.9588 146.356 94.9588 146.352 94.9589C145.645 94.9704 144.37 95.0845 143.345 95.1761C142.844 95.221 142.388 95.2618 142.058 95.2859Z" fill="white"/>
<g opacity="0.6">
<path d="M150.873 96.4537C150.226 96.4543 149.814 96.8947 149.957 97.4323C150.101 97.97 150.748 98.4022 151.395 98.3929L185.705 97.8979C186.352 97.8885 186.873 97.5522 186.862 97.1505C186.852 96.7488 186.314 96.4205 185.667 96.4211L150.873 96.4537Z" fill="white"/>
</g>
<path d="M146.634 108.414C146.631 108.414 146.629 108.414 146.627 108.414L142.725 108.392C142.094 108.388 141.571 107.949 141.509 107.371L141.153 104.086C141.128 103.854 141.198 103.625 141.352 103.44C141.52 103.238 141.773 103.111 142.048 103.091C142.376 103.067 142.828 103.026 143.326 102.982C144.414 102.885 145.647 102.774 146.375 102.762C146.958 102.754 147.469 103.11 147.612 103.632C147.823 104.403 147.811 105.843 147.778 107.376C147.766 107.95 147.253 108.414 146.634 108.414ZM146.397 103.353C146.393 103.353 146.389 103.353 146.384 103.353C145.678 103.364 144.403 103.478 143.378 103.57C142.877 103.615 142.421 103.656 142.09 103.68H142.09C141.974 103.688 141.87 103.739 141.803 103.818C141.768 103.861 141.728 103.931 141.738 104.023L142.093 107.307C142.124 107.587 142.397 107.799 142.728 107.801L146.63 107.823C146.631 107.823 146.632 107.823 146.634 107.823C146.935 107.823 147.184 107.617 147.19 107.363C147.214 106.239 147.25 104.541 147.044 103.788C146.975 103.534 146.704 103.353 146.397 103.353Z" fill="white"/>
<g opacity="0.6">
<path d="M150.905 104.848C150.259 104.848 149.847 105.289 149.99 105.826C150.134 106.364 150.78 106.796 151.427 106.787L185.737 106.292C186.384 106.283 186.905 105.946 186.895 105.545C186.885 105.143 186.347 104.815 185.7 104.815L150.905 104.848Z" fill="white"/>
</g>
<path d="M146.666 116.808C146.664 116.808 146.662 116.808 146.659 116.808L142.758 116.786C142.127 116.782 141.604 116.343 141.541 115.765L141.186 112.48C141.16 112.248 141.231 112.019 141.384 111.834C141.552 111.632 141.806 111.504 142.081 111.485C142.409 111.461 142.862 111.42 143.36 111.376C144.447 111.278 145.68 111.168 146.407 111.156C146.997 111.153 147.502 111.504 147.644 112.026C147.856 112.798 147.843 114.237 147.81 115.77C147.798 116.343 147.286 116.808 146.666 116.808ZM146.429 111.746C146.425 111.746 146.421 111.746 146.417 111.747C145.711 111.758 144.436 111.872 143.412 111.964C142.91 112.009 142.454 112.05 142.123 112.074H142.123C142.007 112.082 141.902 112.133 141.836 112.213C141.801 112.255 141.76 112.325 141.77 112.417L142.126 115.702C142.156 115.981 142.429 116.193 142.761 116.195L146.663 116.218C146.664 116.218 146.665 116.218 146.666 116.218C146.968 116.218 147.217 116.012 147.222 115.757C147.247 114.634 147.283 112.936 147.077 112.182C147.008 111.928 146.736 111.746 146.429 111.746Z" fill="white"/>
<g opacity="0.6">
<path d="M150.938 113.242C150.291 113.242 149.879 113.683 150.023 114.22C150.166 114.758 150.813 115.19 151.46 115.181L185.77 114.686C186.417 114.676 186.938 114.34 186.928 113.938C186.917 113.537 186.38 113.208 185.733 113.209L150.938 113.242Z" fill="white"/>
</g>
<path d="M91.6624 133.541C91.6601 133.541 91.6578 133.541 91.6555 133.541L87.7539 133.519C87.123 133.515 86.6001 133.077 86.5376 132.498L86.1818 129.214C86.1566 128.981 86.2272 128.752 86.3806 128.568C86.5486 128.365 86.8023 128.238 87.0767 128.218C87.4044 128.194 87.8553 128.154 88.3515 128.109C89.4406 128.012 90.6749 127.902 91.4035 127.889C91.9904 127.887 92.4979 128.237 92.6405 128.759C92.8518 129.531 92.8397 130.97 92.807 132.503C92.7944 133.077 92.2816 133.541 91.6624 133.541ZM91.4259 128.48C91.4217 128.48 91.4174 128.48 91.4131 128.48C90.706 128.492 89.4295 128.606 88.4038 128.698C87.9039 128.742 87.4492 128.783 87.1191 128.807H87.1189C87.003 128.815 86.8985 128.866 86.8321 128.946C86.7966 128.988 86.7566 129.058 86.7665 129.15L87.1223 132.435C87.1526 132.714 87.4255 132.926 87.7573 132.928L91.6588 132.951C91.6599 132.951 91.6613 132.951 91.6624 132.951C91.9641 132.951 92.2132 132.745 92.2187 132.49C92.2428 131.366 92.2793 129.668 92.0732 128.915C92.0038 128.661 91.7327 128.48 91.4259 128.48Z" fill="white"/>
<g opacity="0.6">
<path d="M95.9344 129.975C95.2875 129.975 94.8755 130.416 95.019 130.953C95.1625 131.491 95.8092 131.923 96.4561 131.914L130.766 131.419C131.413 131.409 131.934 131.073 131.924 130.671C131.914 130.27 131.376 129.942 130.729 129.942L95.9344 129.975Z" fill="white"/>
</g>
<path d="M91.6951 141.935C91.6928 141.935 91.6905 141.935 91.6883 141.935L87.7866 141.913C87.1559 141.909 86.633 141.47 86.5702 140.892L86.2144 137.608C86.1894 137.375 86.2599 137.146 86.413 136.961C86.5811 136.759 86.8349 136.632 87.1094 136.612C87.4378 136.588 87.8901 136.547 88.3876 136.503C89.4755 136.406 90.7084 136.295 91.4362 136.283C92.0281 136.271 92.5305 136.631 92.6731 137.153C92.8845 137.926 92.8723 139.365 92.8394 140.897C92.8271 141.471 92.3144 141.935 91.6951 141.935ZM87.1518 137.201C87.0358 137.209 86.9311 137.26 86.8647 137.34C86.8293 137.382 86.7892 137.453 86.7991 137.544L87.1549 140.829C87.1851 141.108 87.4583 141.321 87.7899 141.322L91.6914 141.345C91.6926 141.345 91.6939 141.345 91.695 141.345C91.9967 141.345 92.2459 141.139 92.2512 140.884C92.2755 139.761 92.3121 138.063 92.1058 137.309C92.0355 137.052 91.7671 136.864 91.4458 136.874C90.7393 136.885 89.4641 136.999 88.4397 137.091C87.9383 137.136 87.4826 137.177 87.1518 137.201Z" fill="white"/>
<g opacity="0.6">
<path d="M95.9672 138.369C95.3202 138.369 94.9082 138.81 95.0517 139.347C95.1952 139.885 95.842 140.317 96.4889 140.308L130.799 139.813C131.446 139.804 131.967 139.467 131.957 139.066C131.946 138.664 131.408 138.336 130.762 138.336L95.9672 138.369Z" fill="white"/>
</g>
<path d="M91.728 150.329C91.7256 150.329 91.7232 150.329 91.7207 150.329L87.8193 150.307C87.1884 150.303 86.6656 149.864 86.603 149.286L86.2472 146.001C86.222 145.769 86.2926 145.54 86.4459 145.355C86.614 145.153 86.8676 145.026 87.1421 145.006C87.4703 144.982 87.9225 144.941 88.42 144.897C89.508 144.8 90.7411 144.689 91.4691 144.677C92.0502 144.669 92.5631 145.025 92.7059 145.547C92.9171 146.318 92.9051 147.758 92.8723 149.291C92.8597 149.865 92.347 150.329 91.728 150.329ZM91.4913 145.268C91.4871 145.268 91.4828 145.268 91.4785 145.268C90.7719 145.279 89.4968 145.393 88.4722 145.485C87.9709 145.53 87.5153 145.57 87.1844 145.595H87.1843C87.0683 145.603 86.9639 145.654 86.8975 145.733C86.862 145.776 86.822 145.846 86.8319 145.938L87.1877 149.223C87.2175 149.498 87.4963 149.714 87.8227 149.716L91.7242 149.738C91.7255 149.738 91.7267 149.738 91.728 149.738C92.0296 149.738 92.2786 149.532 92.2841 149.278C92.3082 148.154 92.3446 146.456 92.1387 145.703C92.0692 145.449 91.7981 145.268 91.4913 145.268Z" fill="white"/>
<g opacity="0.6">
<path d="M95.9998 146.762C95.3528 146.763 94.9409 147.204 95.0844 147.741C95.2279 148.279 95.8745 148.711 96.5215 148.702L130.832 148.207C131.479 148.197 132 147.861 131.989 147.459C131.979 147.058 131.441 146.729 130.794 146.73L95.9998 146.762Z" fill="white"/>
</g>
<path d="M91.7608 158.723C91.7584 158.723 91.7559 158.723 91.7535 158.723L87.8521 158.701C87.2214 158.697 86.6984 158.258 86.6357 157.68L86.2799 154.396C86.2547 154.163 86.3253 153.934 86.4786 153.749C86.6467 153.547 86.9005 153.42 87.175 153.4C87.5032 153.376 87.9554 153.335 88.4528 153.291C89.5408 153.194 90.7738 153.083 91.5019 153.071C92.0833 153.057 92.5959 153.419 92.7387 153.941C92.95 154.713 92.9379 156.153 92.905 157.685C92.8925 158.259 92.38 158.723 91.7608 158.723ZM91.524 153.662C91.5198 153.662 91.5155 153.662 91.5112 153.662C90.8047 153.673 89.5295 153.787 88.5049 153.879C88.0036 153.924 87.548 153.965 87.2171 153.989H87.217C87.1011 153.997 86.9964 154.048 86.93 154.127C86.8946 154.17 86.8545 154.24 86.8644 154.332L87.2202 157.616C87.2505 157.896 87.5236 158.108 87.8553 158.11L91.7568 158.132C91.7581 158.132 91.7593 158.132 91.7607 158.132C92.0622 158.132 92.3112 157.927 92.3165 157.672C92.3408 156.548 92.3774 154.85 92.1712 154.097C92.102 153.843 91.8309 153.662 91.524 153.662Z" fill="white"/>
<g opacity="0.6">
<path d="M96.0324 155.157C95.3854 155.157 94.9735 155.598 95.117 156.135C95.2604 156.673 95.9071 157.105 96.5541 157.096L130.864 156.601C131.511 156.591 132.032 156.255 132.022 155.853C132.011 155.452 131.474 155.123 130.827 155.124L96.0324 155.157Z" fill="white"/>
</g>
<path d="M148.009 132.374C148.006 132.374 148.004 132.374 148.001 132.374L144.1 132.352C143.469 132.348 142.946 131.91 142.884 131.331L142.528 128.047C142.503 127.814 142.573 127.585 142.727 127.401C142.895 127.198 143.148 127.071 143.423 127.051C143.751 127.027 144.204 126.987 144.701 126.942C145.789 126.845 147.022 126.735 147.75 126.723C148.327 126.705 148.844 127.071 148.987 127.592C149.198 128.365 149.186 129.804 149.153 131.336C149.14 131.91 148.628 132.374 148.009 132.374ZM147.772 127.313C147.768 127.313 147.764 127.313 147.759 127.313C147.053 127.325 145.778 127.439 144.753 127.53C144.252 127.575 143.796 127.616 143.465 127.64H143.465C143.349 127.648 143.245 127.699 143.178 127.779C143.143 127.821 143.103 127.891 143.113 127.983L143.468 131.268C143.499 131.547 143.772 131.76 144.103 131.761L148.005 131.784C148.306 131.784 148.559 131.579 148.565 131.323C148.589 130.2 148.626 128.502 148.419 127.748C148.35 127.494 148.079 127.313 147.772 127.313Z" fill="white"/>
<g opacity="0.6">
<path d="M152.281 128.808C151.634 128.808 151.222 129.249 151.365 129.786C151.509 130.324 152.155 130.756 152.802 130.747L187.113 130.252C187.759 130.242 188.28 129.906 188.27 129.504C188.26 129.103 187.722 128.775 187.075 128.775L152.281 128.808Z" fill="white"/>
</g>
<path d="M148.041 140.768C148.039 140.768 148.037 140.768 148.034 140.768L144.133 140.746C143.502 140.742 142.979 140.304 142.916 139.726L142.561 136.441C142.535 136.208 142.606 135.979 142.759 135.795C142.927 135.592 143.181 135.465 143.456 135.445C143.783 135.421 144.234 135.381 144.73 135.336C145.819 135.239 147.054 135.129 147.782 135.116C148.37 135.112 148.877 135.464 149.019 135.986C149.231 136.759 149.218 138.198 149.186 139.73C149.173 140.304 148.661 140.768 148.041 140.768ZM147.805 135.707C147.801 135.707 147.796 135.707 147.792 135.707C147.085 135.719 145.808 135.833 144.783 135.924C144.283 135.969 143.828 136.01 143.498 136.034H143.498C143.382 136.042 143.277 136.093 143.211 136.173C143.175 136.215 143.135 136.285 143.145 136.377L143.501 139.662C143.531 139.941 143.804 140.153 144.136 140.155L148.038 140.178C148.039 140.178 148.04 140.178 148.041 140.178C148.343 140.178 148.592 139.972 148.597 139.717C148.622 138.594 148.658 136.896 148.452 136.142C148.383 135.888 148.112 135.707 147.805 135.707Z" fill="white"/>
<g opacity="0.6">
<path d="M152.313 137.202C151.666 137.202 151.254 137.643 151.398 138.18C151.541 138.718 152.188 139.15 152.835 139.141L187.145 138.646C187.792 138.637 188.313 138.3 188.303 137.899C188.292 137.497 187.755 137.169 187.108 137.169L152.313 137.202Z" fill="white"/>
</g>
<path d="M148.074 149.162C148.072 149.162 148.069 149.162 148.067 149.162L144.165 149.14C143.534 149.136 143.012 148.697 142.949 148.119L142.593 144.835C142.568 144.602 142.639 144.373 142.792 144.189C142.96 143.986 143.214 143.859 143.488 143.839C143.816 143.815 144.269 143.774 144.766 143.73C145.854 143.633 147.087 143.522 147.815 143.51C148.411 143.498 148.909 143.858 149.052 144.38C149.263 145.153 149.251 146.592 149.218 148.124C149.206 148.698 148.693 149.162 148.074 149.162ZM143.531 144.428C143.415 144.436 143.31 144.487 143.244 144.567C143.208 144.609 143.168 144.679 143.178 144.771L143.534 148.056C143.564 148.335 143.837 148.547 144.169 148.549L148.07 148.572C148.071 148.572 148.073 148.572 148.074 148.572C148.375 148.572 148.625 148.366 148.63 148.111C148.654 146.988 148.691 145.29 148.485 144.536C148.415 144.279 148.149 144.088 147.825 144.101C147.118 144.112 145.843 144.227 144.819 144.318C144.317 144.363 143.861 144.404 143.531 144.428Z" fill="white"/>
<g opacity="0.6">
<path d="M152.346 145.596C151.699 145.596 151.287 146.037 151.43 146.574C151.574 147.112 152.221 147.544 152.868 147.535L187.178 147.04C187.825 147.03 188.346 146.694 188.335 146.292C188.325 145.891 187.787 145.562 187.14 145.563L152.346 145.596Z" fill="white"/>
</g>
<path d="M148.107 157.556C148.104 157.556 148.102 157.556 148.1 157.556L144.198 157.534C143.567 157.53 143.044 157.092 142.982 156.513L142.626 153.228C142.601 152.996 142.671 152.767 142.825 152.582C142.993 152.38 143.246 152.253 143.521 152.233C143.849 152.209 144.301 152.168 144.799 152.124C145.887 152.026 147.12 151.916 147.848 151.904C148.434 151.896 148.942 152.252 149.085 152.774C149.296 153.546 149.284 154.985 149.251 156.518C149.239 157.092 148.726 157.556 148.107 157.556ZM143.563 152.822C143.447 152.83 143.343 152.881 143.276 152.961C143.241 153.003 143.201 153.073 143.211 153.165L143.566 156.45C143.596 156.725 143.875 156.941 144.202 156.943L148.103 156.966C148.104 156.966 148.106 156.966 148.107 156.966C148.408 156.966 148.658 156.76 148.663 156.505C148.687 155.382 148.724 153.683 148.517 152.93C148.447 152.673 148.181 152.486 147.857 152.495C147.151 152.506 145.876 152.62 144.851 152.712C144.35 152.757 143.894 152.798 143.563 152.822Z" fill="white"/>
<g opacity="0.6">
<path d="M152.379 153.99C151.732 153.99 151.32 154.431 151.463 154.968C151.607 155.506 152.253 155.938 152.9 155.929L187.21 155.434C187.857 155.424 188.378 155.088 188.368 154.686C188.358 154.285 187.82 153.956 187.173 153.957L152.379 153.99Z" fill="white"/>
</g>
<path d="M93.103 174.289C93.1006 174.289 93.0981 174.289 93.0957 174.289L89.1942 174.267C88.5634 174.263 88.0404 173.825 87.9779 173.247L87.6222 169.962C87.5971 169.73 87.6676 169.5 87.8209 169.316C87.9889 169.114 88.2426 168.986 88.5171 168.966C88.8453 168.942 89.2975 168.902 89.7949 168.858C90.8829 168.76 92.1161 168.65 92.8441 168.638C93.4251 168.624 93.9382 168.986 94.0809 169.507C94.2923 170.28 94.2801 171.719 94.2472 173.251C94.2347 173.825 93.7221 174.289 93.103 174.289ZM92.8663 169.228C92.8622 169.228 92.8579 169.228 92.8536 169.228C92.1469 169.24 90.8718 169.354 89.8471 169.445C89.3458 169.49 88.8902 169.531 88.5593 169.555H88.5591C88.4432 169.563 88.3387 169.614 88.2724 169.694C88.2369 169.736 88.1968 169.807 88.2067 169.898L88.5625 173.183C88.5928 173.462 88.8656 173.675 89.1975 173.677L93.099 173.699C93.1003 173.699 93.1015 173.699 93.1028 173.699C93.4044 173.699 93.6534 173.493 93.6589 173.238C93.6832 172.115 93.7198 170.417 93.5136 169.663C93.4442 169.41 93.1733 169.228 92.8663 169.228Z" fill="white"/>
<g opacity="0.6">
<path d="M97.3747 170.723C96.7278 170.724 96.3158 171.164 96.4593 171.702C96.6028 172.239 97.2495 172.672 97.8964 172.662L132.207 172.167C132.854 172.158 133.374 171.821 133.364 171.42C133.354 171.018 132.816 170.69 132.169 170.69L97.3747 170.723Z" fill="white"/>
</g>
<path d="M93.1358 182.683C93.1333 182.683 93.1309 182.683 93.1285 182.683L89.227 182.661C88.5963 182.657 88.0734 182.219 88.0106 181.641L87.6549 178.356C87.6297 178.124 87.7002 177.894 87.8534 177.71C88.0215 177.507 88.2753 177.38 88.5498 177.36C88.8784 177.336 89.331 177.296 89.829 177.251C90.9164 177.154 92.1491 177.044 92.8767 177.032C93.4602 177.02 93.9711 177.379 94.1135 177.901C94.3248 178.673 94.3127 180.112 94.28 181.645C94.2674 182.219 93.7548 182.683 93.1358 182.683ZM92.899 177.622C92.8949 177.622 92.8906 177.622 92.8862 177.622C92.18 177.634 90.9053 177.748 89.8811 177.839C89.3794 177.884 88.9233 177.925 88.5922 177.949H88.592C88.476 177.958 88.3714 178.008 88.3051 178.088C88.2698 178.131 88.2298 178.201 88.2397 178.292L88.5954 181.577C88.6256 181.856 88.8988 182.069 89.2305 182.071L93.132 182.093C93.1333 182.093 93.1346 182.093 93.1359 182.093C93.4374 182.093 93.6865 181.887 93.6919 181.632C93.716 180.509 93.7525 178.81 93.5465 178.058C93.477 177.804 93.2059 177.622 92.899 177.622Z" fill="white"/>
<g opacity="0.6">
<path d="M97.4075 179.117C96.7605 179.118 96.3486 179.558 96.492 180.096C96.6355 180.633 97.2822 181.066 97.9292 181.056L132.239 180.561C132.886 180.552 133.407 180.216 133.397 179.814C133.387 179.412 132.849 179.084 132.202 179.084L97.4075 179.117Z" fill="white"/>
</g>
<path d="M93.1682 191.077C93.1659 191.077 93.1637 191.077 93.1614 191.077L89.2596 191.055C88.6288 191.051 88.1058 190.613 88.0433 190.034L87.6875 186.75C87.6624 186.518 87.733 186.288 87.8861 186.104C88.0542 185.901 88.3078 185.774 88.5823 185.754C88.9109 185.73 89.3633 185.69 89.861 185.645C90.9488 185.548 92.1816 185.438 92.9094 185.425C93.4837 185.411 94.0034 185.773 94.1462 186.295C94.3576 187.068 94.3454 188.507 94.3125 190.039C94.3 190.613 93.7874 191.077 93.1682 191.077ZM88.6247 186.343C88.5088 186.351 88.4041 186.402 88.3378 186.482C88.3023 186.525 88.2622 186.595 88.2722 186.686L88.628 189.971C88.6583 190.25 88.9311 190.463 89.263 190.465L93.1646 190.487C93.4694 190.485 93.7189 190.282 93.7244 190.026C93.7487 188.903 93.7853 187.205 93.579 186.451C93.5095 186.198 93.2386 186.016 92.9317 186.016C92.9276 186.016 92.9233 186.016 92.919 186.016C92.2125 186.028 90.9376 186.142 89.9131 186.233C89.4116 186.278 88.9557 186.319 88.6247 186.343Z" fill="white"/>
<g opacity="0.6">
<path d="M97.4402 187.511C96.7932 187.512 96.3813 187.952 96.5247 188.49C96.6682 189.027 97.3149 189.46 97.9619 189.45L132.272 188.955C132.919 188.946 133.44 188.61 133.43 188.208C133.419 187.806 132.881 187.478 132.235 187.479L97.4402 187.511Z" fill="white"/>
</g>
<path d="M93.2008 199.471C93.1985 199.471 93.1963 199.471 93.194 199.471L89.2923 199.449C88.6615 199.445 88.1385 199.007 88.076 198.429L87.7202 195.144C87.695 194.912 87.7655 194.682 87.9186 194.498C88.0867 194.296 88.3404 194.168 88.615 194.148C88.9434 194.124 89.3957 194.084 89.8932 194.039C90.9811 193.942 92.214 193.832 92.9419 193.82C93.5248 193.815 94.0363 194.168 94.1788 194.689C94.39 195.461 94.378 196.901 94.3452 198.433C94.3328 199.007 93.82 199.471 93.2008 199.471ZM88.6575 194.737C88.5413 194.746 88.4368 194.796 88.3705 194.876C88.3352 194.919 88.2951 194.989 88.305 195.08L88.6608 198.365C88.691 198.644 88.9639 198.857 89.2957 198.859L93.1972 198.881C93.1984 198.881 93.1997 198.881 93.2008 198.881C93.5025 198.881 93.7517 198.675 93.7571 198.42C93.7812 197.297 93.8177 195.598 93.6116 194.845C93.5423 194.592 93.2712 194.41 92.9643 194.41C92.9602 194.41 92.9559 194.41 92.9516 194.41C92.2451 194.422 90.9699 194.536 89.9455 194.627C89.4441 194.672 88.9883 194.713 88.6575 194.737Z" fill="white"/>
<g opacity="0.6">
<path d="M97.4728 195.905C96.8258 195.905 96.4139 196.346 96.5573 196.883C96.7008 197.421 97.3475 197.853 97.9945 197.844L132.305 197.349C132.952 197.34 133.472 197.003 133.462 196.602C133.452 196.2 132.914 195.872 132.267 195.872L97.4728 195.905Z" fill="white"/>
</g>
<path d="M149.449 173.123C149.447 173.123 149.444 173.123 149.442 173.123L145.54 173.1C144.91 173.097 144.387 172.658 144.324 172.08L143.968 168.795C143.943 168.563 144.013 168.334 144.167 168.149C144.335 167.947 144.588 167.819 144.863 167.799C145.191 167.776 145.644 167.735 146.141 167.691C147.229 167.593 148.462 167.483 149.19 167.471C149.776 167.456 150.284 167.819 150.427 168.34C150.638 169.113 150.626 170.552 150.593 172.085C150.581 172.658 150.068 173.123 149.449 173.123ZM144.906 168.388C144.789 168.397 144.685 168.448 144.618 168.527C144.583 168.57 144.543 168.64 144.553 168.731L144.909 172.016C144.939 172.296 145.212 172.508 145.544 172.51L149.445 172.532C149.447 172.532 149.448 172.532 149.449 172.532C149.751 172.532 150 172.326 150.005 172.072C150.029 170.948 150.066 169.25 149.86 168.497C149.789 168.239 149.522 168.055 149.2 168.061C148.493 168.073 147.218 168.187 146.193 168.279C145.692 168.324 145.236 168.364 144.906 168.388Z" fill="white"/>
<g opacity="0.6">
<path d="M153.721 169.556C153.074 169.557 152.662 169.997 152.805 170.535C152.949 171.072 153.596 171.505 154.243 171.495L188.553 171C189.2 170.991 189.721 170.655 189.71 170.253C189.7 169.851 189.162 169.523 188.515 169.524L153.721 169.556Z" fill="white"/>
</g>
<path d="M149.482 181.517C149.479 181.517 149.477 181.517 149.474 181.517L145.573 181.494C144.942 181.491 144.419 181.052 144.356 180.474L144.001 177.189C143.976 176.957 144.046 176.727 144.199 176.543C144.367 176.341 144.621 176.213 144.896 176.193C145.224 176.17 145.676 176.129 146.173 176.085C147.262 175.987 148.495 175.877 149.223 175.865C149.809 175.855 150.317 176.213 150.459 176.734C150.671 177.507 150.659 178.946 150.626 180.479C150.613 181.052 150.101 181.517 149.482 181.517ZM149.245 176.455C149.241 176.455 149.236 176.455 149.232 176.455C148.525 176.467 147.25 176.581 146.226 176.673C145.724 176.717 145.269 176.758 144.938 176.782C144.822 176.79 144.717 176.841 144.651 176.921C144.616 176.963 144.576 177.034 144.585 177.125L144.941 180.41C144.971 180.689 145.244 180.902 145.576 180.904L149.478 180.926C149.786 180.934 150.032 180.721 150.038 180.466C150.062 179.342 150.098 177.644 149.892 176.891C149.823 176.637 149.552 176.455 149.245 176.455Z" fill="white"/>
<g opacity="0.6">
<path d="M153.753 177.95C153.106 177.951 152.695 178.391 152.838 178.929C152.982 179.467 153.628 179.899 154.275 179.889L188.585 179.394C189.232 179.385 189.753 179.049 189.743 178.647C189.733 178.245 189.195 177.917 188.548 177.918L153.753 177.95Z" fill="white"/>
</g>
<path d="M149.515 189.911C149.512 189.911 149.51 189.911 149.507 189.911L145.606 189.888C144.975 189.885 144.452 189.446 144.389 188.868L144.034 185.583C144.008 185.351 144.079 185.121 144.232 184.937C144.4 184.734 144.654 184.607 144.929 184.587C145.257 184.563 145.71 184.523 146.208 184.478C147.295 184.381 148.528 184.271 149.255 184.259C149.841 184.251 150.35 184.607 150.492 185.128C150.704 185.901 150.691 187.34 150.659 188.872C150.646 189.446 150.134 189.911 149.515 189.911ZM144.971 185.176C144.855 185.185 144.75 185.235 144.684 185.315C144.648 185.358 144.608 185.428 144.618 185.519L144.974 188.804C145.004 189.084 145.277 189.296 145.609 189.298L149.511 189.32C149.512 189.32 149.513 189.32 149.514 189.32C149.816 189.32 150.065 189.114 150.07 188.86C150.095 187.736 150.131 186.038 149.925 185.285C149.855 185.027 149.586 184.84 149.265 184.849C148.559 184.861 147.284 184.975 146.26 185.067C145.758 185.111 145.302 185.152 144.971 185.176H144.971Z" fill="white"/>
<g opacity="0.6">
<path d="M153.786 186.344C153.139 186.345 152.727 186.785 152.871 187.323C153.014 187.86 153.661 188.293 154.308 188.283L188.618 187.788C189.265 187.779 189.786 187.443 189.776 187.041C189.765 186.639 189.228 186.311 188.581 186.312L153.786 186.344Z" fill="white"/>
</g>
<path d="M149.547 198.304C149.545 198.304 149.542 198.304 149.54 198.304L145.638 198.282C145.007 198.278 144.485 197.84 144.422 197.262L144.066 193.977C144.041 193.745 144.112 193.515 144.265 193.331C144.433 193.128 144.687 193.001 144.961 192.981C145.289 192.957 145.74 192.917 146.236 192.873C147.325 192.775 148.559 192.665 149.288 192.653C149.872 192.648 150.382 193.001 150.525 193.522C150.736 194.295 150.724 195.734 150.691 197.266C150.679 197.84 150.166 198.304 149.547 198.304ZM149.31 193.243C149.306 193.243 149.302 193.243 149.298 193.243C148.59 193.255 147.314 193.369 146.288 193.461C145.788 193.505 145.334 193.546 145.003 193.57H145.003C144.887 193.578 144.783 193.629 144.717 193.709C144.681 193.751 144.641 193.822 144.651 193.913L145.007 197.198C145.037 197.477 145.31 197.69 145.642 197.692L149.543 197.714C149.832 197.714 150.098 197.509 150.103 197.253C150.127 196.13 150.164 194.432 149.958 193.678C149.888 193.425 149.617 193.243 149.31 193.243Z" fill="white"/>
<g opacity="0.6">
<path d="M153.819 194.738C153.172 194.739 152.76 195.179 152.903 195.717C153.047 196.254 153.694 196.687 154.341 196.677L188.651 196.182C189.298 196.173 189.819 195.837 189.808 195.435C189.798 195.033 189.26 194.705 188.613 194.706L153.819 194.738Z" fill="white"/>
</g>
<path d="M141.049 3.72095C136.627 0.658726 132.794 0.734806 130.098 1.54492C127.638 2.2839 126.052 4.67642 126.296 7.24186L127.51 19.9913L141.365 21.171C141.365 21.171 149.72 9.72636 141.049 3.72095ZM134.998 14.0341C133.091 14.0417 131.538 12.4955 131.531 10.5807C131.523 8.66583 133.063 7.10755 134.971 7.10004C136.878 7.09253 138.431 8.63879 138.438 10.5536C138.446 12.4684 136.905 14.0266 134.998 14.0341Z" fill="url(#paint10_linear_218_528)"/>
<path d="M128.871 14.5805C128.721 14.5805 128.593 14.4662 128.579 14.3134L128.385 12.283C128.37 12.1207 128.488 11.9765 128.65 11.961C128.811 11.9454 128.955 12.0645 128.971 12.2268L129.164 14.2572C129.18 14.4195 129.061 14.5636 128.899 14.5792C128.89 14.5801 128.88 14.5805 128.871 14.5805ZM128.492 10.6016C128.342 10.6016 128.214 10.4873 128.2 10.3345L128.053 8.7929C127.822 6.36795 129.334 4.10347 131.647 3.40841C133.292 2.91428 134.988 2.83767 136.689 3.18052C136.848 3.21268 136.951 3.3682 136.919 3.52805C136.887 3.6879 136.732 3.79084 136.573 3.75939C134.967 3.43562 133.367 3.50799 131.816 3.97402C129.77 4.5885 128.434 6.59151 128.639 8.7367L128.785 10.2783C128.801 10.4406 128.682 10.5847 128.521 10.6003C128.511 10.6012 128.502 10.6016 128.492 10.6016Z" fill="white"/>
<path d="M108.638 28.3079L108.613 21.8955C108.604 19.682 110.425 17.902 112.629 17.9691L156.674 19.311C158.629 19.3706 160.218 20.913 160.342 22.8722L160.735 29.0321L108.638 28.3079Z" fill="url(#paint11_linear_218_528)"/>
<path d="M123.133 20.3038C122.971 20.3038 122.839 20.1723 122.839 20.0097C122.838 19.8467 122.969 19.7139 123.132 19.7133L125.026 19.7058C125.026 19.7058 125.027 19.7058 125.027 19.7058C125.189 19.7058 125.32 19.8373 125.321 19.9999C125.322 20.1629 125.191 20.2957 125.028 20.2963L123.134 20.3038C123.134 20.3038 123.133 20.3038 123.133 20.3038Z" fill="white"/>
<path d="M111.012 26.2443C110.85 26.2443 110.719 26.1128 110.718 25.9502L110.708 23.3563C110.705 22.3963 111.074 21.4921 111.747 20.8105C112.421 20.129 113.319 19.7516 114.275 19.7479L121.238 19.7205C121.238 19.7205 121.239 19.7205 121.239 19.7205C121.401 19.7205 121.532 19.8519 121.533 20.0145C121.534 20.1776 121.402 20.3104 121.24 20.3109L114.277 20.3383C113.478 20.3415 112.728 20.6568 112.165 21.2264C111.602 21.7961 111.293 22.5518 111.296 23.3541L111.306 25.948C111.307 26.111 111.176 26.2438 111.014 26.2444C111.013 26.2443 111.013 26.2443 111.012 26.2443Z" fill="white"/>
<path d="M94.8295 26.015L171.841 25.7107C174.61 25.6998 176.985 27.691 177.468 30.4283L177.535 30.806C178.064 33.8043 175.773 36.5574 172.74 36.5692L93.7311 36.8792C91.9159 36.8863 90.4635 35.3685 90.5435 33.5479L90.6996 29.9973C90.7974 27.7764 92.615 26.0237 94.8295 26.015Z" fill="#949592"/>
<path opacity="0.6" d="M185.792 61.5597H86.087C85.506 61.5597 85.0307 61.0825 85.0307 60.4993V45.6182C85.0307 45.035 85.506 44.5579 86.087 44.5579H185.792C186.373 44.5579 186.848 45.035 186.848 45.6182V60.4993C186.848 61.0825 186.373 61.5597 185.792 61.5597Z" fill="white"/>
<path d="M19.7872 169.522C19.7872 169.522 16.3551 188.711 40.1111 189.791C66.7055 191.001 114.666 135.643 131.985 114.043C158.208 81.3375 184.135 61.169 206.861 61.4039C229.588 61.6388 233.888 84.8679 227.01 96.8865C227.01 96.8865 227.487 74.5214 213.477 77.2402C199.468 79.9591 179.067 95.3092 131.985 147.786C104.801 178.084 71.6488 202.4 41.8865 200.847C13.1203 199.347 11.0289 180.572 19.7872 169.522Z" fill="url(#paint12_linear_218_528)"/>
<mask id="mask0_218_528" style="mask-type:luminance" maskUnits="userSpaceOnUse" x="15" y="61" width="215" height="140">
<path d="M20.7384 168.933C20.7384 168.933 13.4933 189.335 40.1111 189.791C66.7289 190.247 114.666 135.643 131.985 114.043C158.208 81.3375 184.135 61.169 206.861 61.4039C229.588 61.6388 233.888 84.8679 227.01 96.8865C227.01 96.8865 227.487 74.5214 213.477 77.2402C199.468 79.9591 179.067 95.3092 131.985 147.786C104.801 178.084 71.6807 201.555 41.8865 200.847C12.0923 200.14 11.98 179.983 20.7384 168.933Z" fill="white"/>
</mask>
<g mask="url(#mask0_218_528)">
<g opacity="0.29">
<path d="M196.666 75.8414C196.552 75.8414 196.44 75.783 196.373 75.6754L186.774 60.2922C186.668 60.1226 186.713 59.8958 186.875 59.785C187.037 59.6743 187.254 59.722 187.36 59.8914L196.959 75.2745C197.065 75.4441 197.019 75.671 196.857 75.7817C196.798 75.822 196.732 75.8414 196.666 75.8414Z" fill="white"/>
<path d="M179.515 86.7091C179.402 86.7091 179.291 86.6518 179.223 86.5457L169.63 71.4698C169.523 71.3014 169.567 71.0738 169.728 70.9617C169.889 70.8498 170.106 70.8952 170.213 71.0639L179.806 86.1397C179.914 86.3082 179.87 86.5358 179.709 86.6479C179.649 86.6893 179.582 86.7091 179.515 86.7091Z" fill="white"/>
<path d="M165.486 96.6542C165.382 96.6542 165.279 96.6057 165.21 96.5132L155.855 83.9625C155.736 83.8029 155.763 83.5725 155.915 83.4482C156.068 83.3234 156.288 83.3523 156.407 83.5117L165.762 96.0624C165.881 96.222 165.854 96.4524 165.702 96.5767C165.638 96.6288 165.562 96.6542 165.486 96.6542Z" fill="white"/>
<path d="M154.141 107.229C154.058 107.229 153.976 107.199 153.909 107.137L143.479 97.4745C143.334 97.3405 143.321 97.1088 143.449 96.9573C143.577 96.8059 143.799 96.7915 143.944 96.9259L154.373 106.588C154.518 106.722 154.532 106.954 154.403 107.105C154.334 107.187 154.238 107.229 154.141 107.229Z" fill="white"/>
<path d="M205.822 72.7036C205.654 72.7036 205.505 72.5754 205.477 72.3953C205.455 72.2539 203.297 58.2277 203.145 57.4855C203.105 57.2875 203.225 57.0928 203.415 57.0504C203.603 57.0082 203.79 57.1342 203.83 57.3319C203.986 58.0925 206.08 71.7 206.169 72.279C206.199 72.4788 206.069 72.6669 205.879 72.6989C205.86 72.702 205.841 72.7036 205.822 72.7036Z" fill="white"/>
<path d="M218.432 72.7036C218.238 72.7036 218.082 72.5395 218.082 72.3372V60.092C218.082 59.8898 218.238 59.7256 218.432 59.7256C218.625 59.7256 218.782 59.8898 218.782 60.092V72.3372C218.782 72.5395 218.625 72.7036 218.432 72.7036Z" fill="white"/>
<path d="M140.72 123.613C140.634 123.613 140.549 123.58 140.481 123.514C138.584 121.671 129.105 112.451 128.787 111.952C128.68 111.783 128.723 111.556 128.884 111.443C129.044 111.332 129.258 111.376 129.366 111.539C129.714 112.005 136.485 118.631 140.958 122.978C141.1 123.115 141.108 123.347 140.976 123.495C140.907 123.573 140.814 123.613 140.72 123.613Z" fill="white"/>
<path d="M127.989 138.497C127.896 138.497 127.803 138.458 127.734 138.382L117.148 126.593C117.016 126.445 117.023 126.213 117.164 126.075C117.305 125.936 117.526 125.944 117.659 126.091L128.244 137.88C128.377 138.028 128.37 138.259 128.229 138.398C128.161 138.464 128.075 138.497 127.989 138.497Z" fill="white"/>
<path d="M113.918 157.07C113.814 157.07 113.711 157.022 113.642 156.93L102.651 142.278C102.532 142.119 102.558 141.889 102.71 141.764C102.863 141.639 103.083 141.667 103.202 141.826L114.193 156.477C114.313 156.636 114.286 156.867 114.134 156.992C114.07 157.044 113.994 157.07 113.918 157.07Z" fill="white"/>
<path d="M100.281 170.031C100.171 170.031 100.063 169.978 99.9949 169.877L90.4991 155.932C90.3868 155.767 90.4236 155.538 90.5812 155.421C90.7387 155.303 90.9576 155.342 91.0696 155.507L100.565 169.452C100.678 169.617 100.641 169.846 100.483 169.963C100.422 170.009 100.351 170.031 100.281 170.031Z" fill="white"/>
<path d="M89.0724 178.443C88.9651 178.443 88.8592 178.391 88.7905 178.294L78.9834 164.405C78.8684 164.242 78.9015 164.013 79.0571 163.893C79.2126 163.772 79.4318 163.807 79.5468 163.97L89.3539 177.859C89.4688 178.022 89.4358 178.251 89.2802 178.371C89.2176 178.419 89.1447 178.443 89.0724 178.443Z" fill="white"/>
<path d="M75.3347 187.679C75.2275 187.679 75.1219 187.628 75.0531 187.531L67.2487 176.517C67.1336 176.355 67.1662 176.125 67.3216 176.005C67.4768 175.884 67.6962 175.918 67.8115 176.081L75.6159 187.095C75.7311 187.257 75.6985 187.487 75.543 187.607C75.4804 187.656 75.4072 187.679 75.3347 187.679Z" fill="white"/>
<path d="M62.7646 194.031C62.6452 194.031 62.5288 193.967 62.4634 193.852L56.7037 183.734C56.6046 183.56 56.6592 183.335 56.8254 183.232C56.9915 183.129 57.2066 183.186 57.3056 183.359L63.0653 193.477C63.1643 193.651 63.1098 193.876 62.9436 193.979C62.8872 194.014 62.8255 194.031 62.7646 194.031Z" fill="white"/>
<path d="M53.5801 196.474C53.4514 196.474 53.3275 196.399 53.2663 196.27L48.5963 186.442C48.5102 186.26 48.5808 186.04 48.7541 185.95C48.927 185.86 49.1374 185.934 49.2236 186.115L53.8936 195.944C53.9797 196.125 53.9091 196.345 53.7359 196.435C53.6857 196.461 53.6326 196.474 53.5801 196.474Z" fill="white"/>
<path d="M43.1496 198.102C42.9801 198.102 42.8311 197.973 42.8041 197.792L41.2474 187.369C41.2176 187.17 41.3482 186.982 41.5394 186.951C41.7292 186.922 41.9096 187.056 41.9394 187.256L43.4961 197.679C43.526 197.879 43.3953 198.067 43.2041 198.098C43.1859 198.101 43.1677 198.102 43.1496 198.102Z" fill="white"/>
<path d="M35.0558 197.288C35.0381 197.288 35.0204 197.286 35.0024 197.283C34.8112 197.253 34.68 197.066 34.7092 196.866L36.2659 186.223C36.2951 186.023 36.4733 185.884 36.6651 185.916C36.8563 185.947 36.9876 186.134 36.9584 186.334L35.4018 196.977C35.3751 197.158 35.2259 197.288 35.0558 197.288Z" fill="white"/>
<path d="M27.5834 194.845C27.5425 194.845 27.501 194.837 27.4605 194.821C27.2794 194.751 27.1876 194.539 27.2555 194.35L30.2131 186.095C30.2813 185.905 30.4835 185.809 30.664 185.88C30.8452 185.951 30.937 186.162 30.8691 186.352L27.9115 194.607C27.8586 194.754 27.7251 194.845 27.5834 194.845Z" fill="white"/>
<path d="M20.2669 185.769C20.1824 185.769 20.0975 185.737 20.0303 185.673C19.8877 185.536 19.8781 185.304 20.0089 185.155L25.6129 178.76C25.7434 178.611 25.965 178.6 26.1078 178.737C26.2504 178.874 26.26 179.106 26.1292 179.255L20.5252 185.65C20.4561 185.729 20.3616 185.769 20.2669 185.769Z" fill="white"/>
<path d="M18.8284 176.501C18.7035 176.501 18.5826 176.432 18.5195 176.308C18.428 176.13 18.4921 175.908 18.6626 175.812C20.5022 174.78 24.0765 172.765 24.4368 172.523C24.6 172.414 24.8164 172.464 24.9207 172.634C25.025 172.804 24.9775 173.031 24.8146 173.14C24.3417 173.457 19.2117 176.336 18.9936 176.458C18.941 176.488 18.8843 176.501 18.8284 176.501Z" fill="white"/>
<path d="M208.78 66.4586C208.663 66.4586 208.562 66.3665 208.549 66.242L207.731 58.7256C207.717 58.5915 207.809 58.4703 207.937 58.4553C208.062 58.4383 208.181 58.5361 208.195 58.6702L209.013 66.1866C209.027 66.3207 208.935 66.4419 208.807 66.4569C208.798 66.4582 208.789 66.4586 208.78 66.4586Z" fill="white"/>
<path d="M212.049 66.1423C211.928 66.1423 211.825 66.0435 211.817 65.9145L211.35 58.7146C211.341 58.58 211.438 58.4636 211.567 58.4543C211.698 58.4495 211.807 58.5468 211.815 58.6816L212.282 65.8815C212.291 66.0161 212.194 66.1325 212.065 66.1419C212.06 66.142 212.055 66.1423 212.049 66.1423Z" fill="white"/>
<path d="M215.552 66.4589C215.423 66.4589 215.319 66.3497 215.319 66.2146V60.092C215.319 59.957 215.423 59.8477 215.552 59.8477C215.681 59.8477 215.786 59.9569 215.786 60.092V66.2146C215.786 66.3497 215.681 66.4589 215.552 66.4589Z" fill="white"/>
<path d="M202.826 67.0038C202.725 67.0038 202.632 66.935 202.602 66.8289C200.778 60.3886 200.94 60.0847 200.993 59.9847C201.024 59.9271 201.087 59.8738 201.148 59.8563C201.272 59.8209 201.401 59.8975 201.435 60.0275C201.45 60.0873 201.443 60.1482 201.419 60.1997C201.425 60.6971 202.253 63.8749 203.05 66.6899C203.087 66.8192 203.016 66.9552 202.893 66.9936C202.87 67.0007 202.848 67.0038 202.826 67.0038Z" fill="white"/>
<path d="M199.791 68.0279C199.691 68.0279 199.598 67.9606 199.568 67.8556L197.466 60.7245C197.428 60.5954 197.497 60.4587 197.621 60.4189C197.744 60.3791 197.874 60.4513 197.912 60.5804L200.014 67.7116C200.052 67.8407 199.983 67.9774 199.86 68.0172C199.837 68.0245 199.813 68.0279 199.791 68.0279Z" fill="white"/>
<path d="M196.666 68.8358C196.589 68.8358 196.514 68.7964 196.47 68.7239L192.589 62.4302C192.519 62.3169 192.551 62.1657 192.659 62.0924C192.768 62.0199 192.912 62.0521 192.982 62.1654L196.862 68.4591C196.932 68.5723 196.901 68.7236 196.792 68.7969C196.753 68.8231 196.709 68.8358 196.666 68.8358Z" fill="white"/>
<path d="M189.283 72.5812C189.205 72.5812 189.129 72.5402 189.085 72.4657L184.998 65.5733C184.93 65.4585 184.964 65.308 185.074 65.2369C185.183 65.1663 185.328 65.2013 185.395 65.3156L189.482 72.208C189.55 72.3228 189.516 72.4733 189.406 72.5444C189.368 72.5692 189.325 72.5812 189.283 72.5812Z" fill="white"/>
<path d="M183.913 74.8363C183.838 74.8363 183.764 74.7985 183.719 74.7286L179.321 67.9202C179.249 67.8086 179.277 67.6566 179.384 67.5812C179.491 67.5056 179.636 67.5352 179.708 67.6469L184.106 74.4553C184.178 74.5669 184.15 74.7189 184.043 74.7943C184.003 74.8227 183.958 74.8363 183.913 74.8363Z" fill="white"/>
<path d="M179.515 77.7521C179.44 77.7521 179.366 77.7143 179.321 77.6443L174.525 70.1937C174.453 70.0818 174.481 69.9301 174.588 69.8547C174.695 69.7793 174.84 69.8089 174.912 69.9208L179.709 77.3714C179.781 77.4833 179.752 77.635 179.645 77.7104C179.605 77.7385 179.56 77.7521 179.515 77.7521Z" fill="white"/>
<path d="M172.121 82.6379C172.048 82.6379 171.976 82.6018 171.93 82.5346L167.26 75.6162C167.186 75.506 167.211 75.3535 167.316 75.2758C167.421 75.1976 167.567 75.2245 167.641 75.3342L172.311 82.2526C172.386 82.3628 172.361 82.5152 172.255 82.5931C172.215 82.6233 172.168 82.6379 172.121 82.6379Z" fill="white"/>
<path d="M168.028 84.9638C167.952 84.9638 167.878 84.9256 167.833 84.8548L163.637 78.2537C163.566 78.1413 163.595 77.9896 163.702 77.9149C163.81 77.8402 163.955 77.8707 164.026 77.9831L168.222 84.5842C168.293 84.6966 168.264 84.8483 168.157 84.923C168.117 84.9507 168.072 84.9638 168.028 84.9638Z" fill="white"/>
<path d="M164.766 88.5006C164.694 88.5006 164.623 88.466 164.577 88.4006L159.79 81.5635C159.714 81.4548 159.737 81.3018 159.841 81.2222C159.945 81.1422 160.091 81.1659 160.167 81.2749L164.954 88.112C165.03 88.2208 165.008 88.3738 164.903 88.4534C164.862 88.4853 164.814 88.5006 164.766 88.5006Z" fill="white"/>
<path d="M157.994 94.7298C157.926 94.7298 157.859 94.6991 157.813 94.6396L152.596 87.9218C152.514 87.8171 152.53 87.6632 152.63 87.5781C152.73 87.4932 152.877 87.5089 152.958 87.6136L158.175 94.3314C158.257 94.4361 158.241 94.59 158.141 94.6752C158.098 94.7119 158.046 94.7298 157.994 94.7298Z" fill="white"/>
<path d="M154.141 98.5163C154.087 98.5163 154.033 98.4967 153.988 98.4566L147.684 92.7463C147.586 92.658 147.576 92.5036 147.66 92.4018C147.745 92.2999 147.892 92.2885 147.989 92.377L154.294 98.0874C154.391 98.1756 154.402 98.33 154.318 98.4319C154.272 98.4876 154.207 98.5163 154.141 98.5163Z" fill="white"/>
<path d="M147.019 106.455C146.965 106.455 146.91 106.436 146.866 106.395L140.566 100.655C140.469 100.566 140.459 100.412 140.544 100.31C140.628 100.208 140.776 100.197 140.873 100.286L147.173 106.027C147.27 106.115 147.28 106.27 147.195 106.372C147.149 106.427 147.085 106.455 147.019 106.455Z" fill="white"/>
<path d="M144.801 109.844C144.752 109.844 144.704 109.828 144.662 109.795L137.773 104.426C137.67 104.346 137.648 104.193 137.726 104.084C137.803 103.976 137.949 103.954 138.052 104.035L144.941 109.404C145.044 109.484 145.065 109.637 144.988 109.745C144.943 109.81 144.872 109.844 144.801 109.844Z" fill="white"/>
<path d="M141.357 114.138C141.303 114.138 141.248 114.119 141.204 114.079L134.746 108.228C134.649 108.14 134.638 107.985 134.723 107.883C134.807 107.781 134.954 107.77 135.052 107.859L141.51 113.709C141.607 113.798 141.618 113.952 141.533 114.054C141.487 114.11 141.422 114.138 141.357 114.138Z" fill="white"/>
<path d="M133.593 122.211C133.533 122.211 133.474 122.188 133.428 122.14L127.824 116.277C127.733 116.182 127.733 116.027 127.824 115.932C127.915 115.836 128.063 115.836 128.154 115.932L133.758 121.794C133.849 121.89 133.849 122.044 133.758 122.14C133.713 122.188 133.653 122.211 133.593 122.211Z" fill="white"/>
<path d="M130.791 125.9C130.727 125.9 130.662 125.873 130.616 125.818L125.012 119.198C124.927 119.097 124.936 118.942 125.032 118.853C125.129 118.764 125.277 118.773 125.362 118.874L130.966 125.494C131.051 125.595 131.042 125.75 130.946 125.839C130.901 125.88 130.846 125.9 130.791 125.9Z" fill="white"/>
<path d="M127.316 129.662C127.258 129.662 127.2 129.64 127.155 129.595C124.996 127.445 121.692 124.182 121.438 124.003C121.332 123.927 121.303 123.775 121.375 123.664C121.446 123.552 121.59 123.522 121.697 123.596C122.054 123.845 126.923 128.689 127.477 129.241C127.571 129.334 127.574 129.489 127.485 129.586C127.44 129.637 127.378 129.662 127.316 129.662Z" fill="white"/>
<path d="M120.517 137.113C120.454 137.113 120.391 137.086 120.345 137.034C119.818 136.432 115.188 131.145 114.951 130.767C114.881 130.655 114.911 130.504 115.018 130.43C115.126 130.356 115.271 130.387 115.342 130.499C115.509 130.764 118.631 134.355 120.689 136.703C120.776 136.803 120.77 136.958 120.675 137.049C120.63 137.092 120.573 137.113 120.517 137.113Z" fill="white"/>
<path d="M116.314 141.51C116.238 141.51 116.164 141.471 116.119 141.399L112.266 135.242C112.195 135.129 112.225 134.978 112.333 134.904C112.441 134.83 112.586 134.862 112.657 134.974L116.509 141.132C116.58 141.245 116.55 141.396 116.442 141.47C116.403 141.497 116.358 141.51 116.314 141.51Z" fill="white"/>
<path d="M113.913 146.273C113.851 146.273 113.79 146.248 113.744 146.198L107.505 139.358C107.416 139.26 107.42 139.106 107.513 139.012C107.606 138.919 107.754 138.923 107.843 139.021L114.082 145.86C114.171 145.958 114.167 146.113 114.074 146.206C114.029 146.251 113.971 146.273 113.913 146.273Z" fill="white"/>
<path d="M106.624 153.968C106.551 153.968 106.479 153.933 106.433 153.865L101.639 146.781C101.564 146.671 101.589 146.518 101.695 146.44C101.8 146.363 101.946 146.388 102.02 146.499L106.814 153.583C106.889 153.693 106.864 153.845 106.759 153.923C106.718 153.954 106.67 153.968 106.624 153.968Z" fill="white"/>
<path d="M102.927 156.948C102.852 156.948 102.778 156.91 102.733 156.84L98.0239 149.514C97.9518 149.402 97.9803 149.25 98.0873 149.175C98.1945 149.1 98.3394 149.13 98.4113 149.242L103.12 156.567C103.192 156.679 103.164 156.831 103.057 156.906C103.017 156.934 102.972 156.948 102.927 156.948Z" fill="white"/>
<path d="M99.3852 160.184C99.3165 160.184 99.2485 160.153 99.2024 160.092L93.9486 153.193C93.8683 153.087 93.8849 152.933 93.9858 152.85C94.0865 152.766 94.2335 152.783 94.3139 152.888L99.5677 159.788C99.6481 159.893 99.6314 160.047 99.5306 160.131C99.4875 160.167 99.4363 160.184 99.3852 160.184Z" fill="white"/>
<path d="M93.0808 166.019C93.0082 166.019 92.9365 165.984 92.8909 165.918L88.2209 159.119C88.1457 159.009 88.1695 158.856 88.2743 158.778C88.379 158.699 88.5248 158.724 88.6001 158.834L93.2701 165.632C93.3454 165.742 93.3215 165.895 93.2168 165.973C93.1755 166.004 93.128 166.019 93.0808 166.019Z" fill="white"/>
<path d="M90.0452 168.587C89.9726 168.587 89.901 168.552 89.8554 168.486L85.1854 161.684C85.1101 161.574 85.1341 161.421 85.2387 161.343C85.3434 161.264 85.4893 161.289 85.5646 161.399L90.2346 168.201C90.3098 168.31 90.2859 168.463 90.1812 168.542C90.1399 168.573 90.0923 168.587 90.0452 168.587Z" fill="white"/>
<path d="M87.7104 170.702C87.6398 170.702 87.5701 170.668 87.5242 170.605L82.9709 164.335C82.8929 164.228 82.9129 164.074 83.0156 163.993C83.1184 163.911 83.265 163.932 83.3429 164.04L87.8962 170.31C87.9742 170.417 87.9542 170.57 87.8515 170.652C87.8091 170.685 87.7595 170.702 87.7104 170.702Z" fill="white"/>
<path d="M83.1568 175.309C83.0894 175.309 83.0225 175.279 82.9763 175.22L77.6946 168.498C77.6127 168.394 77.6271 168.24 77.7266 168.154C77.8264 168.068 77.9734 168.084 78.0553 168.188L83.3371 174.91C83.4189 175.014 83.4046 175.168 83.305 175.253C83.2615 175.291 83.209 175.309 83.1568 175.309Z" fill="white"/>
<path d="M79.2653 177.915C79.1904 177.915 79.1168 177.878 79.0717 177.808L74.4017 170.594C74.3295 170.483 74.3574 170.331 74.4642 170.255C74.5708 170.18 74.7162 170.209 74.7885 170.321L79.4585 177.534C79.5308 177.646 79.5029 177.798 79.396 177.873C79.356 177.902 79.3104 177.915 79.2653 177.915Z" fill="white"/>
<path d="M75.8761 180.554C75.8047 180.554 75.7344 180.52 75.6885 180.456L71.2449 174.21C71.168 174.102 71.1894 173.949 71.2928 173.868C71.3964 173.787 71.5427 173.81 71.6195 173.918L76.0631 180.164C76.1401 180.272 76.1187 180.426 76.0153 180.506C75.9734 180.539 75.9246 180.554 75.8761 180.554Z" fill="white"/>
<path d="M68.6799 185.647C68.6031 185.647 68.5281 185.607 68.4834 185.535L63.969 178.209C63.8992 178.096 63.9304 177.944 64.0387 177.871C64.1473 177.799 64.2919 177.83 64.3614 177.944L68.8758 185.27C68.9457 185.383 68.9145 185.535 68.8062 185.608C68.7671 185.634 68.7232 185.647 68.6799 185.647Z" fill="white"/>
<path d="M64.1655 187.557C64.0886 187.557 64.0132 187.517 63.9686 187.445L59.6878 180.442C59.6183 180.328 59.6501 180.177 59.7588 180.104C59.8669 180.032 60.0118 180.065 60.0812 180.178L64.362 187.181C64.4315 187.295 64.3998 187.446 64.291 187.519C64.2521 187.545 64.2086 187.557 64.1655 187.557Z" fill="white"/>
<path d="M57.0048 190.856C56.9214 190.856 56.841 190.809 56.7987 190.727L53.3741 184.049C53.3132 183.931 53.3558 183.782 53.4695 183.719C53.5834 183.655 53.7247 183.7 53.7857 183.818L57.2103 190.496C57.2712 190.615 57.2286 190.763 57.1149 190.827C57.0798 190.847 57.042 190.856 57.0048 190.856Z" fill="white"/>
<path d="M54.5141 191.902C54.4365 191.902 54.3606 191.862 54.3163 191.788L51.0473 186.353C50.9785 186.239 51.0114 186.088 51.1205 186.016C51.2296 185.945 51.3739 185.979 51.4425 186.093L54.7116 191.528C54.7803 191.642 54.7475 191.793 54.6383 191.865C54.5996 191.89 54.5566 191.902 54.5141 191.902Z" fill="white"/>
<path d="M48.9099 193.909C48.814 193.909 48.7241 193.846 48.6899 193.746L46.5105 187.355C46.4672 187.227 46.5306 187.088 46.652 187.043C46.7731 186.997 46.9069 187.063 46.9504 187.191L49.1298 193.582C49.1731 193.709 49.1097 193.849 48.9882 193.894C48.9624 193.904 48.9359 193.909 48.9099 193.909Z" fill="white"/>
<path d="M45.9487 194.723C45.844 194.723 45.7488 194.649 45.7224 194.538L44.0134 187.372C43.9821 187.241 44.0583 187.109 44.1833 187.076C44.3088 187.045 44.4352 187.123 44.4664 187.254L46.1754 194.419C46.2067 194.55 46.1306 194.683 46.0055 194.716C45.9865 194.72 45.9675 194.723 45.9487 194.723Z" fill="white"/>
<path d="M39.8812 194.723C39.7522 194.723 39.6476 194.613 39.6476 194.478V187.313C39.6476 187.178 39.7522 187.069 39.8812 187.069C40.0101 187.069 40.1147 187.178 40.1147 187.313V194.478C40.1146 194.613 40.01 194.723 39.8812 194.723Z" fill="white"/>
<path d="M37.8427 194.723C37.7137 194.723 37.6091 194.613 37.6091 194.478V187.273C37.6091 187.138 37.7137 187.028 37.8427 187.028C37.9716 187.028 38.0762 187.138 38.0762 187.273V194.478C38.0762 194.613 37.9716 194.723 37.8427 194.723Z" fill="white"/>
<path d="M33.0321 193.908C33.0203 193.908 33.0083 193.908 32.9963 193.906C32.8688 193.885 32.7813 193.76 32.801 193.627L33.735 187.276C33.7546 187.142 33.8741 187.05 34.0011 187.071C34.1286 187.092 34.2161 187.217 34.1965 187.35L33.2625 193.701C33.2448 193.822 33.1453 193.908 33.0321 193.908Z" fill="white"/>
<path d="M30.5411 192.769C30.5179 192.769 30.4943 192.765 30.471 192.757C30.3479 192.717 30.2795 192.58 30.3182 192.451C31.1168 189.793 31.8476 186.805 31.6881 186.408C31.6137 186.298 31.642 186.151 31.7475 186.073C31.8529 185.995 32.0017 186.028 32.0761 186.138C32.4684 186.719 31.289 190.849 30.7637 192.597C30.7325 192.702 30.6403 192.769 30.5411 192.769Z" fill="white"/>
<path d="M25.9603 190.856C25.9182 190.856 25.8755 190.844 25.8371 190.819C25.7276 190.748 25.6942 190.597 25.7624 190.483L28.8642 185.273C28.9324 185.159 29.0762 185.124 29.1858 185.195C29.2952 185.267 29.3286 185.417 29.2604 185.532L26.1587 190.741C26.1144 190.815 26.0383 190.856 25.9603 190.856Z" fill="white"/>
<path d="M23.8472 187.517C23.81 187.517 23.7722 187.508 23.7371 187.488C23.6234 187.424 23.5807 187.276 23.6416 187.157L26.4436 181.691C26.5044 181.572 26.6459 181.527 26.7598 181.591C26.8735 181.655 26.9161 181.803 26.8552 181.921L24.0532 187.388C24.0112 187.47 23.9305 187.517 23.8472 187.517Z" fill="white"/>
<path d="M20.2673 180.554C20.1808 180.554 20.0978 180.504 20.0573 180.417C20.0006 180.296 20.0484 180.15 20.1643 180.091L24.523 177.857C24.639 177.798 24.7789 177.848 24.8354 177.969C24.8922 178.09 24.8443 178.237 24.7285 178.296L20.3697 180.53C20.3367 180.547 20.3017 180.554 20.2673 180.554Z" fill="white"/>
<path d="M20.2673 177.774C20.1913 177.774 20.1168 177.735 20.0719 177.664C20.001 177.551 20.0309 177.4 20.1387 177.326L23.719 174.861C23.827 174.786 23.9716 174.818 24.0425 174.93C24.1135 175.043 24.0835 175.195 23.9758 175.269L20.3954 177.733C20.3558 177.761 20.3113 177.774 20.2673 177.774Z" fill="white"/>
</g>
</g>
<path d="M25.1829 212.161C25.4662 209.929 25.8429 208.798 26.1456 208.224C25.9242 208.201 25.6984 208.179 25.464 208.163C25.2136 208.146 24.9959 208.312 24.9748 208.54L23.8409 220.835C23.8047 221.228 24.2351 221.502 24.61 221.368C24.6365 219.743 24.745 215.611 25.1829 212.161Z" fill="url(#paint13_linear_218_528)"/>
<path d="M30.2183 209.159C31.1858 209.539 31.7699 210.529 31.635 211.563L31.5014 212.586C29.6578 217.917 26.3774 220.382 24.7599 221.317C24.7285 221.335 24.6955 221.344 24.6628 221.356C24.6892 219.732 24.7977 215.599 25.2356 212.149C25.5189 209.918 25.8957 208.786 26.1985 208.212C27.9377 208.396 29.2799 208.79 30.2183 209.159Z" fill="url(#paint14_linear_218_528)"/>
<path d="M29.4023 212.394L29.7789 210.458C29.867 210.005 30.4255 209.692 31.0263 209.758L34.8687 210.183L34.6869 215.158L30.2182 213.845C29.6174 213.779 29.3142 212.846 29.4023 212.394Z" fill="url(#paint15_linear_218_528)"/>
<path d="M110.92 243.777C108.816 244.552 107.642 244.737 106.995 244.732C107.076 244.94 107.161 245.151 107.255 245.367C107.355 245.598 107.602 245.716 107.814 245.629L119.208 240.98C119.572 240.832 119.616 240.322 119.325 240.05C117.876 240.774 114.172 242.579 110.92 243.777Z" fill="url(#paint16_linear_218_528)"/>
<path d="M105.947 240.672C105.838 239.635 106.444 238.658 107.421 238.303L108.387 237.951C113.95 237.139 117.64 238.928 119.211 239.939C119.241 239.959 119.265 239.984 119.29 240.008C117.842 240.732 114.137 242.538 110.885 243.735C108.781 244.51 107.607 244.695 106.96 244.69C106.322 243.056 106.052 241.678 105.947 240.672Z" fill="url(#paint17_linear_218_528)"/>
<path d="M109.183 239.91L107.298 240.465C106.857 240.595 106.323 240.242 106.105 239.676L104.712 236.056L109.195 233.928L110.091 238.515C110.309 239.081 109.624 239.78 109.183 239.91Z" fill="url(#paint18_linear_218_528)"/>
<path d="M82.2811 198.08C82.2811 198.08 67.7126 222.409 60.2558 222.27C52.7989 222.131 32.3616 216.087 32.3616 216.087L33.4663 208.823L55.0084 210.175L61.9129 191.634L82.2811 198.08Z" fill="url(#paint19_linear_218_528)"/>
<path d="M56.5571 176.406C56.5571 176.406 51.3382 195.305 64.9446 198.86C78.5511 202.415 89.7345 205.783 89.7345 205.783L104.646 238.902L110.983 237.405C110.983 237.405 107.628 204.286 101.291 196.989C94.9534 189.692 88.7896 184.703 88.7896 184.703L56.5571 176.406Z" fill="url(#paint20_linear_218_528)"/>
<path d="M79.5591 162.653C79.147 162.054 65.2785 149.184 74.2915 143.667C83.3047 138.15 90.8255 160.197 90.8255 160.197L104.886 160.357C104.886 160.357 106.466 157.512 107.656 158.24C108.846 158.967 110.517 158.208 111.313 160.074C112.11 161.94 111.149 163.86 109.658 164.843C108.166 165.826 87.3285 173.932 79.5591 162.653Z" fill="url(#paint21_linear_218_528)"/>
<path d="M79.5304 136.177C79.5304 136.177 84.7953 142.352 85.3544 142.633C76.1281 143.755 64.6468 138.603 64.6468 138.603C64.6468 138.603 72.2045 135.055 72.6285 130.096C74.9431 130.209 79.1103 130.096 79.1103 130.096L79.5304 136.177Z" fill="url(#paint22_linear_218_528)"/>
<path d="M67.8125 136.705C67.8125 136.705 82.2201 142.652 84.4395 141.754C86.659 143.849 94.1146 154.047 91.3188 157.415C91.2609 157.484 93.6736 183.904 91.4267 186.453C90.5894 187.403 88.2844 186.436 87.0872 186.421C83.7759 186.378 80.5258 185.63 77.3101 184.906C73.158 183.972 69.0218 182.9 64.9397 181.584C63.1585 181.01 61.39 180.394 59.6455 179.715C58.3475 179.21 56.4126 178.785 55.5523 177.616C54.7025 176.461 55.7729 172.995 55.9701 171.579C57.1297 163.247 58.8108 154.623 58.8108 146.189C58.811 140.015 67.8125 136.705 67.8125 136.705Z" fill="url(#paint23_linear_218_528)"/>
<path d="M71.848 129.597C71.0484 130.344 70.1117 131.019 69.3852 130.598C68.3883 130.019 67.7285 127.016 67.6566 126.34C67.5847 125.665 64.8337 118.212 66.1128 116.366C66.8268 115.335 67.6561 115.171 68.6211 115.963C68.7875 115.771 68.8662 115.457 69.0647 115.267C71.4056 113.027 74.2641 111.335 77.35 110.363C77.2286 111.051 77.1071 111.739 76.9858 112.427C79.0818 111.285 81.4121 110.579 83.7874 110.366C82.6793 111.096 81.7088 112.037 80.9419 113.122C82.2962 112.71 83.6897 112.292 85.1007 112.404C86.6122 112.525 88.648 113.402 87.6999 114.871C86.7169 116.395 84.3998 117.954 83.0596 119.255C79.8407 122.38 76.5294 125.41 73.1315 128.338C72.823 128.604 72.3641 129.115 71.848 129.597Z" fill="url(#paint24_linear_218_528)"/>
<path d="M83.7008 118.467C83.7008 118.467 95.8647 134.601 84.3254 137.129C74.3748 139.308 72.194 129.785 72.194 129.785C72.194 129.785 70.8294 129.76 69.9404 127.804C69.0513 125.849 70.0742 122.663 72.4023 123.211C74.7305 123.759 75.1783 126.901 75.1783 126.901C75.1783 126.901 74.6355 119.667 76.8558 119.201C79.0761 118.735 83.7008 118.467 83.7008 118.467Z" fill="url(#paint25_linear_218_528)"/>
<path d="M52.4775 145.941C53.1427 145.665 68.5058 134.866 71.9404 144.809C75.375 154.752 52.4775 157.434 52.4775 157.434L49.3609 171.098C49.3609 171.098 51.7778 173.237 50.8238 174.242C49.8698 175.248 50.2513 177.036 48.2796 177.419C46.308 177.802 44.6542 176.461 44.0181 174.801C43.3821 173.141 39.9364 151.133 52.4775 145.941Z" fill="url(#paint26_linear_218_528)"/>
<path d="M106.981 162.105C107.2 162.072 107.363 161.977 107.477 161.814C107.786 161.374 107.639 160.605 107.638 160.597C107.624 160.529 107.652 160.459 107.705 160.414C107.759 160.369 107.835 160.357 107.9 160.382C107.903 160.383 108.197 160.487 108.998 160.254C109.079 160.23 109.112 160.202 109.114 160.189C109.141 160.018 108.635 159.511 108.032 159.104C107.944 159.045 107.92 158.925 107.979 158.837C108.038 158.748 108.157 158.724 108.246 158.784C108.559 158.995 109.575 159.725 109.494 160.248C109.474 160.374 109.391 160.541 109.105 160.625C108.942 160.672 108.802 160.703 108.673 160.729C108.629 161.614 108.633 163.568 109.107 164.047C109.167 164.107 109.224 164.133 109.296 164.129C109.402 164.125 109.492 164.204 109.499 164.31C109.505 164.416 109.424 164.507 109.318 164.514C109.306 164.514 109.294 164.515 109.282 164.515C109.115 164.515 108.961 164.447 108.834 164.318C108.212 163.69 108.252 161.532 108.285 160.784C108.196 160.791 108.115 160.794 108.049 160.791C108.074 161.11 108.064 161.646 107.792 162.035C107.616 162.286 107.363 162.438 107.038 162.487C107.029 162.488 107.019 162.489 107.01 162.489C106.916 162.489 106.834 162.42 106.82 162.324C106.804 162.219 106.877 162.121 106.981 162.105Z" fill="url(#paint27_linear_218_528)"/>
<path d="M71.9403 144.809C69.3424 137.288 59.9225 141.634 55.1985 144.317C57.0344 148.029 58.5589 152.038 59.3941 156.098C65.8223 154.452 74.1034 151.071 71.9403 144.809Z" fill="url(#paint28_linear_218_528)"/>
<path d="M169.804 159.675C165.405 161.324 160.562 161.367 156.109 159.87C151.154 158.204 143.111 157.847 130.923 163.331C107.027 174.083 107.872 220.994 141.79 228.009C186.09 237.172 206.87 215.144 210.694 199.298C214.519 183.452 204.399 163.301 184.738 158.996C178.299 157.586 173.356 158.343 169.804 159.675Z" fill="url(#paint29_linear_218_528)"/>
<path opacity="0.23" d="M139.19 166.853C143.082 167.106 150.338 168.773 143.686 177.312C137.033 185.851 131.455 199.952 134.295 209.095C137.136 218.238 118.659 206.937 117.605 194.778C116.55 182.619 127.101 166.067 139.19 166.853Z" fill="white"/>
<path d="M175.777 165.018C175.777 167.241 170.069 169.044 163.027 169.044C155.984 169.044 150.276 167.241 150.276 165.018C150.276 162.794 155.984 165.018 163.027 165.018C170.069 165.018 175.777 162.794 175.777 165.018Z" fill="url(#paint30_linear_218_528)"/>
<path d="M159.72 164.472C159.72 164.472 155.663 147.566 174.898 136.744C194.132 125.922 193.699 124.943 194.749 130.667C195.799 136.392 201.603 156.679 180.526 165.396C159.449 174.112 159.72 164.472 159.72 164.472Z" fill="url(#paint31_linear_218_528)"/>
<path opacity="0.23" d="M191.279 131.296C188.261 136.228 174.249 158.487 161.919 167.286C161.919 167.286 176.543 169.18 187.034 159.318C196.006 150.884 193.169 135.665 192.16 131.435C192.059 131.015 191.504 130.927 191.279 131.296Z" fill="white"/>
<path d="M162.161 167.6C162.558 170.376 164.913 167.315 163.809 161.8C162.705 156.285 161.572 143.17 153.641 145.462C145.71 147.755 160.484 155.882 162.161 167.6Z" fill="url(#paint32_linear_218_528)"/>
<path d="M226.36 229.578L165.744 232.519C164.474 232.581 163.385 231.588 163.324 230.314L162.801 219.463C162.74 218.189 163.728 217.096 164.998 217.034L225.615 214.093C226.884 214.032 227.973 215.024 228.035 216.299L228.557 227.149C228.618 228.424 227.63 229.517 226.36 229.578Z" fill="url(#paint33_linear_218_528)"/>
<path opacity="0.37" d="M227.549 218.221L163.47 221.33C163.152 221.345 162.88 221.097 162.865 220.779L162.734 218.066C162.719 217.747 162.966 217.474 163.283 217.459L227.362 214.35C227.68 214.335 227.952 214.583 227.968 214.901L228.098 217.614C228.113 217.933 227.866 218.206 227.549 218.221Z" fill="url(#paint34_linear_218_528)"/>
<path d="M143.112 211.18L149.315 204.717L157.813 204.305L164.357 210.149L165.722 238.501L159.513 244.838L150.391 245.281L144.477 239.532L143.112 211.18Z" fill="url(#paint35_linear_218_528)"/>
<path opacity="0.37" d="M159.513 244.838L157.813 204.305L164.357 210.149L165.722 238.501L159.513 244.838Z" fill="white"/>
<path opacity="0.37" d="M143.112 211.18L149.315 204.717L157.813 204.305L164.357 210.149L143.112 211.18Z" fill="url(#paint36_linear_218_528)"/>
<path opacity="0.37" d="M144.477 239.532L150.391 245.281L159.513 244.838L165.722 238.501L144.477 239.532Z" fill="url(#paint37_linear_218_528)"/>
<path d="M239.073 206.21L232.279 200.378L223.781 200.79L217.828 207.24L219.193 235.593L225.981 241.299L235.104 240.857L240.438 234.562L239.073 206.21Z" fill="url(#paint38_linear_218_528)"/>
<path opacity="0.37" d="M225.981 241.299L223.781 200.79L217.828 207.241L219.193 235.593L225.981 241.299Z" fill="white"/>
<path opacity="0.37" d="M239.073 206.21L232.279 200.378L223.781 200.79L217.828 207.24L239.073 206.21Z" fill="url(#paint39_linear_218_528)"/>
<path opacity="0.37" d="M240.438 234.562L235.104 240.857L225.981 241.299L219.193 235.593L240.438 234.562Z" fill="url(#paint40_linear_218_528)"/>
<defs>
<linearGradient id="paint0_linear_218_528" x1="288.156" y1="332.853" x2="59.3218" y2="49.548" gradientUnits="userSpaceOnUse">
<stop stop-color="#55BD51"/>
<stop offset="1" stop-color="#8CDF75" stop-opacity="0.7"/>
</linearGradient>
<linearGradient id="paint1_linear_218_528" x1="134.07" y1="-24.2468" x2="22.558" y2="242.105" gradientUnits="userSpaceOnUse">
<stop stop-color="#CE1567"/>
<stop offset="1" stop-color="#7A1DBC"/>
</linearGradient>
<linearGradient id="paint2_linear_218_528" x1="21.8078" y1="96.4388" x2="104.014" y2="110.805" gradientUnits="userSpaceOnUse">
<stop stop-color="#41A362"/>
<stop offset="1" stop-color="#204F2E"/>
</linearGradient>
<linearGradient id="paint3_linear_218_528" x1="47.2333" y1="115.588" x2="95.4967" y2="124.022" gradientUnits="userSpaceOnUse">
<stop stop-color="#41A362"/>
<stop offset="1" stop-color="#204F2E"/>
</linearGradient>
<linearGradient id="paint4_linear_218_528" x1="-7.08294" y1="130.565" x2="105.769" y2="150.286" gradientUnits="userSpaceOnUse">
<stop stop-color="#41A362"/>
<stop offset="1" stop-color="#204F2E"/>
</linearGradient>
<linearGradient id="paint5_linear_218_528" x1="18.5916" y1="145.274" x2="100.68" y2="159.619" gradientUnits="userSpaceOnUse">
<stop stop-color="#41A362"/>
<stop offset="1" stop-color="#204F2E"/>
</linearGradient>
<linearGradient id="paint6_linear_218_528" x1="197.87" y1="122.259" x2="229.181" y2="69.8328" gradientUnits="userSpaceOnUse">
<stop stop-color="#CE1567"/>
<stop offset="1" stop-color="#7A1DBC"/>
</linearGradient>
<linearGradient id="paint7_linear_218_528" x1="58.2358" y1="129.042" x2="217.004" y2="129.042" gradientUnits="userSpaceOnUse">
<stop stop-color="#22241E"/>
<stop offset="1" stop-color="#32342D"/>
</linearGradient>
<linearGradient id="paint8_linear_218_528" x1="178.217" y1="29.6049" x2="85.8142" y2="243.853" gradientUnits="userSpaceOnUse">
<stop stop-color="#53D8FF"/>
<stop offset="1" stop-color="#3840F7"/>
</linearGradient>
<linearGradient id="paint9_linear_218_528" x1="97.6497" y1="72.4818" x2="77.746" y2="106.626" gradientUnits="userSpaceOnUse">
<stop stop-color="#A737D5"/>
<stop offset="1" stop-color="#EF497A"/>
</linearGradient>
<linearGradient id="paint10_linear_218_528" x1="158.246" y1="-11.7172" x2="92.0685" y2="54.2576" gradientUnits="userSpaceOnUse">
<stop stop-color="#2B3582"/>
<stop offset="1" stop-color="#150E42"/>
</linearGradient>
<linearGradient id="paint11_linear_218_528" x1="160.775" y1="-9.9488" x2="104.637" y2="64.2131" gradientUnits="userSpaceOnUse">
<stop stop-color="#2B3582"/>
<stop offset="1" stop-color="#150E42"/>
</linearGradient>
<linearGradient id="paint12_linear_218_528" x1="247.254" y1="-165.819" x2="55.8495" y2="291.361" gradientUnits="userSpaceOnUse">
<stop stop-color="#D974E6"/>
<stop offset="1" stop-color="#D974E6"/>
</linearGradient>
<linearGradient id="paint13_linear_218_528" x1="30.7555" y1="223.711" x2="7.88632" y2="187.925" gradientUnits="userSpaceOnUse">
<stop stop-color="#2B3582"/>
<stop offset="1" stop-color="#150E42"/>
</linearGradient>
<linearGradient id="paint14_linear_218_528" x1="24.645" y1="219.996" x2="37.3045" y2="191.549" gradientUnits="userSpaceOnUse">
<stop stop-color="#8D55D1"/>
<stop offset="0.9964" stop-color="#1C2873"/>
</linearGradient>
<linearGradient id="paint15_linear_218_528" x1="34.8687" y1="212.454" x2="29.3873" y2="212.454" gradientUnits="userSpaceOnUse">
<stop stop-color="#F9B776"/>
<stop offset="1" stop-color="#F47960"/>
</linearGradient>
<linearGradient id="paint16_linear_218_528" x1="118.568" y1="233.494" x2="97.1991" y2="270.202" gradientUnits="userSpaceOnUse">
<stop stop-color="#2B3582"/>
<stop offset="1" stop-color="#150E42"/>
</linearGradient>
<linearGradient id="paint17_linear_218_528" x1="118.096" y1="240.649" x2="87.1169" y2="242.539" gradientUnits="userSpaceOnUse">
<stop stop-color="#8D55D1"/>
<stop offset="0.9964" stop-color="#1C2873"/>
</linearGradient>
<linearGradient id="paint18_linear_218_528" x1="106.72" y1="235.011" x2="109.259" y2="239.888" gradientUnits="userSpaceOnUse">
<stop stop-color="#F9B776"/>
<stop offset="1" stop-color="#F47960"/>
</linearGradient>
<linearGradient id="paint19_linear_218_528" x1="51.7859" y1="224.332" x2="62.3242" y2="188.465" gradientUnits="userSpaceOnUse">
<stop stop-color="#2B3582"/>
<stop offset="1" stop-color="#150E42"/>
</linearGradient>
<linearGradient id="paint20_linear_218_528" x1="110.983" y1="207.654" x2="55.5736" y2="207.654" gradientUnits="userSpaceOnUse">
<stop stop-color="#2B3582"/>
<stop offset="1" stop-color="#150E42"/>
</linearGradient>
<linearGradient id="paint21_linear_218_528" x1="81.4264" y1="154.813" x2="111.384" y2="168.206" gradientUnits="userSpaceOnUse">
<stop stop-color="#F9B776"/>
<stop offset="1" stop-color="#F47960"/>
</linearGradient>
<linearGradient id="paint22_linear_218_528" x1="70.6852" y1="153.707" x2="77.3321" y2="133.702" gradientUnits="userSpaceOnUse">
<stop stop-color="#F9B776"/>
<stop offset="1" stop-color="#F47960"/>
</linearGradient>
<linearGradient id="paint23_linear_218_528" x1="85.8544" y1="138.714" x2="55.6164" y2="214.474" gradientUnits="userSpaceOnUse">
<stop stop-color="#FDF53F"/>
<stop offset="1" stop-color="#D93C65"/>
</linearGradient>
<linearGradient id="paint24_linear_218_528" x1="88.4596" y1="118.956" x2="66.0912" y2="121.336" gradientUnits="userSpaceOnUse">
<stop stop-color="#2B3582"/>
<stop offset="1" stop-color="#150E42"/>
</linearGradient>
<linearGradient id="paint25_linear_218_528" x1="80.8213" y1="123.223" x2="72.0639" y2="160.198" gradientUnits="userSpaceOnUse">
<stop stop-color="#F9B776"/>
<stop offset="1" stop-color="#F47960"/>
</linearGradient>
<linearGradient id="paint26_linear_218_528" x1="64.5479" y1="136.052" x2="36.1219" y2="207.272" gradientUnits="userSpaceOnUse">
<stop stop-color="#F9B776"/>
<stop offset="1" stop-color="#F47960"/>
</linearGradient>
<linearGradient id="paint27_linear_218_528" x1="109.499" y1="161.633" x2="106.818" y2="161.633" gradientUnits="userSpaceOnUse">
<stop stop-color="#F9B776"/>
<stop offset="1" stop-color="#F47960"/>
</linearGradient>
<linearGradient id="paint28_linear_218_528" x1="65.1878" y1="128.694" x2="59.372" y2="196.558" gradientUnits="userSpaceOnUse">
<stop stop-color="#FDF53F"/>
<stop offset="1" stop-color="#D93C65"/>
</linearGradient>
<linearGradient id="paint29_linear_218_528" x1="154.103" y1="180.443" x2="216.256" y2="271.047" gradientUnits="userSpaceOnUse">
<stop stop-color="#FDF53F"/>
<stop offset="1" stop-color="#D93C65"/>
</linearGradient>
<linearGradient id="paint30_linear_218_528" x1="171.499" y1="154.408" x2="158.943" y2="170.135" gradientUnits="userSpaceOnUse">
<stop stop-color="#FDF53F"/>
<stop offset="1" stop-color="#D93C65"/>
</linearGradient>
<linearGradient id="paint31_linear_218_528" x1="159.363" y1="148.129" x2="196.271" y2="148.129" gradientUnits="userSpaceOnUse">
<stop stop-color="#152C19"/>
<stop offset="0.9964" stop-color="#397851"/>
</linearGradient>
<linearGradient id="paint32_linear_218_528" x1="151.317" y1="156.919" x2="164.101" y2="156.919" gradientUnits="userSpaceOnUse">
<stop stop-color="#E40045"/>
<stop offset="1" stop-color="#5C0E16"/>
</linearGradient>
<linearGradient id="paint33_linear_218_528" x1="168.602" y1="191.32" x2="226.547" y2="259.242" gradientUnits="userSpaceOnUse">
<stop stop-color="#CB236D"/>
<stop offset="1" stop-color="#4C246D"/>
</linearGradient>
<linearGradient id="paint34_linear_218_528" x1="162.799" y1="219.423" x2="228.034" y2="216.281" gradientUnits="userSpaceOnUse">
<stop stop-color="white"/>
<stop offset="0.7667" stop-color="white"/>
<stop offset="0.9704" stop-color="white"/>
<stop offset="0.9974" stop-color="white"/>
</linearGradient>
<linearGradient id="paint35_linear_218_528" x1="770.231" y1="317.687" x2="898.838" y2="336.928" gradientUnits="userSpaceOnUse">
<stop stop-color="#CB236D"/>
<stop offset="1" stop-color="#4C246D"/>
</linearGradient>
<linearGradient id="paint36_linear_218_528" x1="158.199" y1="196.097" x2="153.658" y2="210.8" gradientUnits="userSpaceOnUse">
<stop stop-color="white"/>
<stop offset="0.7667" stop-color="white"/>
<stop offset="0.9704" stop-color="white"/>
<stop offset="0.9974" stop-color="white"/>
</linearGradient>
<linearGradient id="paint37_linear_218_528" x1="161.128" y1="236.891" x2="148.675" y2="244.054" gradientUnits="userSpaceOnUse">
<stop stop-color="white"/>
<stop offset="0.7667" stop-color="white"/>
<stop offset="0.9704" stop-color="white"/>
<stop offset="0.9974" stop-color="white"/>
</linearGradient>
<linearGradient id="paint38_linear_218_528" x1="221.539" y1="209.672" x2="287.356" y2="306.247" gradientUnits="userSpaceOnUse">
<stop stop-color="#CB236D"/>
<stop offset="1" stop-color="#4C246D"/>
</linearGradient>
<linearGradient id="paint39_linear_218_528" x1="222.607" y1="192.658" x2="228.548" y2="206.85" gradientUnits="userSpaceOnUse">
<stop stop-color="white"/>
<stop offset="0.7667" stop-color="white"/>
<stop offset="0.9704" stop-color="white"/>
<stop offset="0.9974" stop-color="white"/>
</linearGradient>
<linearGradient id="paint40_linear_218_528" x1="223.611" y1="233.546" x2="236.692" y2="239.475" gradientUnits="userSpaceOnUse">
<stop stop-color="white"/>
<stop offset="0.7667" stop-color="white"/>
<stop offset="0.9704" stop-color="white"/>
<stop offset="0.9974" stop-color="white"/>
</linearGradient>
</defs>
</svg>
