<svg width="255" height="257" viewBox="0 0 255 257" fill="none" xmlns="http://www.w3.org/2000/svg">
<path d="M222.401 219.941C217.235 225.448 212.347 228.999 208.486 231.805C163.093 264.788 109.382 255.174 97.9665 252.826C81.1099 249.359 48.5263 242.657 24.969 214.602C-10.6713 172.159 -5.12154 105.29 22.5234 61.1483C27.5801 53.0741 54.2911 8.26053 108.581 1.07389C141.437 -3.27538 179.736 5.49658 207.471 29.028C265.69 78.4223 261.545 178.208 222.401 219.941Z" fill="url(#paint0_linear_218_1497)"/>
<path d="M133.407 1.63963C132.895 0.722324 134.074 -0.337252 135.11 0.102769C145.633 4.5709 172.111 19.4414 177.568 57.5083C184.414 105.269 200.172 118.772 216.719 124.956C216.719 124.956 196.655 125.683 180.001 112.178C139.114 79.0192 142.524 17.9496 133.407 1.63963Z" fill="#55BD51"/>
<path d="M144.016 14.0502C146.554 18.8416 148.981 23.6829 151.199 28.6109C153.446 33.5256 155.52 38.511 157.412 43.5597C159.281 48.616 161.041 53.7105 162.55 58.8817C164.085 64.0447 165.365 69.2788 166.629 74.5393C167.926 79.7882 169.199 85.0849 171.093 90.2377C172.978 95.3817 175.599 100.358 179.199 104.684C180.098 105.762 181.024 106.827 182.015 107.828C182.985 108.848 184.008 109.825 185.053 110.785C187.153 112.694 189.41 114.471 191.818 116.079C196.645 119.284 202.074 121.788 207.775 123.579C208.375 123.768 209.071 123.472 209.33 122.918C209.584 122.374 209.322 121.784 208.745 121.585L208.74 121.583C207.371 121.111 206.01 120.625 204.683 120.085C204.014 119.825 203.361 119.537 202.702 119.261C202.057 118.963 201.397 118.687 200.765 118.37C198.209 117.142 195.767 115.748 193.468 114.191C188.854 111.1 184.789 107.338 181.341 103.211C179.644 101.128 178.132 98.9236 176.825 96.609C175.519 94.2933 174.419 91.8697 173.478 89.377C171.594 84.3888 170.286 79.159 168.946 73.9218C167.598 68.6855 166.203 63.4348 164.563 58.2609C163.751 55.6719 162.886 53.0997 161.968 50.5466C161.518 49.2671 161.039 47.9976 160.563 46.7275C160.073 45.4623 159.575 44.2004 159.066 42.9431C157.016 37.9179 154.79 32.9634 152.387 28.0914C149.957 23.2317 147.377 18.4417 144.588 13.7636C144.508 13.6299 144.317 13.5881 144.161 13.6703C144.009 13.7501 143.947 13.9182 144.016 14.0502Z" fill="white"/>
<path d="M187.131 104.909C186.411 106.338 184.484 106.559 183.451 105.342C177.755 98.6258 163.345 78.1622 168.71 48.0857C173.241 22.6876 173.314 8.47963 172.906 2.02746C172.82 0.663068 174.504 -0.0198166 175.373 1.02599C184.967 12.5643 213.208 53.1111 187.131 104.909Z" fill="#58B079"/>
<path d="M185 104.653C184.965 104.671 184.928 104.685 184.888 104.696C184.559 104.788 184.218 104.592 184.128 104.259C184.025 103.88 173.89 66.0409 178.614 30.4384C178.659 30.0958 178.971 29.8551 179.309 29.9009C179.648 29.947 179.886 30.2623 179.84 30.6053C175.15 65.9488 185.218 103.55 185.32 103.926C185.4 104.219 185.26 104.522 185 104.653Z" fill="white"/>
<path d="M239.447 254.938H163.493V112.294C163.493 105.301 169.091 99.6316 175.997 99.6316H226.943C233.849 99.6316 239.447 105.301 239.447 112.294V254.938Z" fill="#7D97F4"/>
<path d="M217.055 254.938H141.102V103.342C141.102 101.293 142.742 99.6316 144.766 99.6316H213.392C215.415 99.6316 217.055 101.293 217.055 103.342V254.938Z" fill="#91B3FA"/>
<path d="M147.372 127.945C147.115 127.945 146.908 127.735 146.908 127.475V115.686C146.908 109.462 152.533 104.398 159.448 104.398H179.42C179.676 104.398 179.884 104.608 179.884 104.868C179.884 105.127 179.676 105.338 179.42 105.338H159.448C153.045 105.338 147.836 109.98 147.836 115.686V127.475C147.836 127.735 147.628 127.945 147.372 127.945Z" fill="#BDD0FB"/>
<path d="M147.372 140.445C147.115 140.445 146.908 140.235 146.908 139.975V135.172C146.908 134.913 147.115 134.702 147.372 134.702C147.628 134.702 147.836 134.913 147.836 135.172V139.975C147.836 140.235 147.628 140.445 147.372 140.445Z" fill="white"/>
<path d="M165.836 254.938H88.7111V135.421C88.7111 133.371 90.3515 131.71 92.3749 131.71H162.172C164.195 131.71 165.836 133.371 165.836 135.421L165.836 254.938Z" fill="url(#paint1_linear_218_1497)"/>
<path d="M146.244 254.938H69.1194V135.421C69.1194 133.371 70.7599 131.71 72.7833 131.71H142.58C144.604 131.71 146.244 133.371 146.244 135.421L146.244 254.938Z" fill="url(#paint2_linear_218_1497)"/>
<g opacity="0.68">
<path d="M74.2904 154.767C74.0343 154.767 73.8265 154.556 73.8265 154.297V145.554C73.8265 140.871 78.0523 137.061 83.2467 137.061H98.0575C98.3136 137.061 98.5215 137.272 98.5215 137.531C98.5215 137.791 98.3136 138.001 98.0575 138.001H83.2467C78.5639 138.001 74.7544 141.389 74.7544 145.554V154.297C74.7544 154.556 74.5466 154.767 74.2904 154.767Z" fill="white"/>
<path d="M74.2904 164.037C74.0343 164.037 73.8265 163.827 73.8265 163.567V160.005C73.8265 159.745 74.0343 159.535 74.2904 159.535C74.5466 159.535 74.7544 159.745 74.7544 160.005V163.567C74.7544 163.826 74.5466 164.037 74.2904 164.037Z" fill="white"/>
</g>
<path d="M87.5413 254.938H21.0848V180.564C21.0848 173.571 26.6827 167.902 33.5882 167.902H75.0377C81.9432 167.902 87.5413 173.571 87.5413 180.564V254.938Z" fill="#7D97F4"/>
<path d="M67.9497 254.938H1.49323V171.612C1.49323 169.563 3.13365 167.902 5.1571 167.902H64.2859C66.3094 167.902 67.9497 169.563 67.9497 171.612V254.938Z" fill="#91B3FA"/>
<path d="M6.97923 192.733C6.72309 192.733 6.51526 192.523 6.51526 192.264V181.949C6.51526 176.47 11.4635 172.013 17.5458 172.013H35.0201C35.2762 172.013 35.484 172.223 35.484 172.483C35.484 172.743 35.2762 172.953 35.0201 172.953H17.5458C11.9753 172.953 7.44319 176.988 7.44319 181.949V192.264C7.4431 192.523 7.23536 192.733 6.97923 192.733Z" fill="#BDD0FB"/>
<path d="M6.97923 203.67C6.72309 203.67 6.51526 203.46 6.51526 203.2V198.998C6.51526 198.738 6.72309 198.528 6.97923 198.528C7.23536 198.528 7.44319 198.738 7.44319 198.998V203.2C7.4431 203.46 7.23536 203.67 6.97923 203.67Z" fill="#BDD0FB"/>
<path d="M89.0364 65.325L83.0969 74.5782C85.8599 80.0293 88.9288 83.0386 91.9991 84.4691C92.5474 81.0729 94.5059 78.254 95.944 76.5795C90.4669 73.4247 89.0364 65.325 89.0364 65.325Z" fill="#D974E6"/>
<path d="M109.443 74.9185C103.362 78.5632 99.0164 78.3494 95.9442 76.5796C94.5062 78.254 92.5476 81.0731 91.9994 84.4691C101.76 89.0168 111.533 77.5704 111.533 77.5704L109.443 74.9185Z" fill="url(#paint3_linear_218_1497)"/>
<path d="M109.774 76.5035C109.774 76.5035 108.132 73.6053 110.493 71.3798C110.493 71.3798 111.254 70.5005 112.09 71.7924C112.09 71.7924 114.63 69.4576 115.324 70.3981C116.019 71.3386 117.86 73.6674 116.062 76.3236C114.244 79.0098 110.576 77.8125 109.774 76.5035Z" fill="url(#paint4_linear_218_1497)"/>
<path d="M112.27 74.9025C112.025 74.9025 111.764 74.8566 111.532 74.7175C111.305 74.5816 111.02 74.2983 110.947 73.7199C110.926 73.5482 111.046 73.3914 111.215 73.3694C111.387 73.3479 111.54 73.469 111.561 73.6406C111.595 73.9071 111.688 74.0831 111.847 74.1784C112.065 74.309 112.39 74.2844 112.633 74.2329L112.061 72.3986C112.01 72.2336 112.101 72.0577 112.264 72.0057C112.428 71.9533 112.6 72.0451 112.652 72.2102L113.318 74.3503C113.367 74.5074 113.287 74.6758 113.136 74.736C113.074 74.7607 112.699 74.9023 112.27 74.9025Z" fill="#F79E6D"/>
<path d="M23.3789 137.062C22.8504 137.384 22.5803 138.062 22.7062 138.727C23.2019 141.343 24.8315 148.254 28.79 152.346C29.0514 152.616 29.4317 152.592 29.6615 152.348C28.6592 151.291 27.4163 149.483 25.9636 146.413C23.7307 141.695 23.3171 138.785 23.3789 137.062Z" fill="url(#paint5_linear_218_1497)"/>
<path d="M28.4902 136.964C28.4902 136.964 25.938 135.558 23.3966 137.049C23.3903 137.053 23.385 137.058 23.3789 137.062C23.3171 138.785 23.7306 141.695 25.9635 146.413C27.4164 149.483 28.6592 151.291 29.6615 152.348C29.7342 152.271 29.7927 152.173 29.8265 152.054C30.5701 149.438 32.1401 142.17 28.4902 136.964Z" fill="url(#paint6_linear_218_1497)"/>
<path d="M32.1764 137.127L29.8636 139.374C29.4545 139.771 28.8272 139.835 28.3548 139.518C27.9428 139.241 27.4842 138.787 27.1789 138.051C26.9958 137.609 27.0837 137.098 27.4019 136.743L29.7109 134.171C30.2621 133.557 31.2426 133.659 31.6595 134.373L32.3815 135.61C32.6691 136.102 32.5842 136.73 32.1764 137.127Z" fill="url(#paint7_linear_218_1497)"/>
<path d="M106.931 125.854C107.469 126.16 108.185 126.063 108.693 125.623C110.694 123.894 115.821 119.043 117.377 113.537C117.48 113.173 117.271 112.85 116.948 112.768C116.536 114.173 115.599 116.161 113.681 118.957C110.735 123.254 108.441 125.057 106.931 125.854Z" fill="url(#paint8_linear_218_1497)"/>
<path d="M104.321 121.403C104.321 121.403 104.375 124.344 106.911 125.845C106.918 125.849 106.925 125.851 106.931 125.854C108.441 125.057 110.735 123.254 113.681 118.957C115.599 116.161 116.536 114.173 116.948 112.768C116.846 112.742 116.733 112.739 116.614 112.768C114.001 113.406 106.986 115.616 104.321 121.403Z" fill="url(#paint9_linear_218_1497)"/>
<path d="M104.142 116.532L106.558 118.664C106.986 119.041 107.105 119.668 106.835 120.173C106.599 120.613 106.194 121.116 105.497 121.49C105.079 121.714 104.568 121.671 104.191 121.382L101.455 119.283C100.802 118.782 100.814 117.784 101.479 117.299L102.631 116.461C103.09 116.126 103.716 116.156 104.142 116.532Z" fill="url(#paint10_linear_218_1497)"/>
<path d="M55.6523 94.9526C55.6523 94.9526 50.9365 111.222 47.8876 118.373C47.8876 118.373 42.5579 119.196 39.2592 121.148C35.9605 123.1 28.8552 133.918 28.8552 133.918C28.8552 133.918 30.7108 137.485 32.9496 138.032L53.1766 123.84L69.3196 104.829L68.5533 96.0108L55.6523 94.9526Z" fill="url(#paint11_linear_218_1497)"/>
<path d="M55.9429 93.6252L54.5629 98.0805C54.5629 98.0805 55.8251 109.761 70.3659 107.791C84.9067 105.822 86.7342 103.418 86.7342 103.418C86.7342 103.418 85.4719 110.877 101.372 119.847C101.372 119.847 103.789 117.999 104.321 115.901L93.1783 97.3035C91.6284 94.864 90.1912 94.2215 87.3612 94.6697C81.1036 95.6607 69.3867 96.9524 67.6134 96.6458L55.9429 93.6252Z" fill="url(#paint12_linear_218_1497)"/>
<path d="M67.2996 60.496C63.0621 60.7142 56.3639 62.7542 52.0371 66.788C53.367 68.2746 55.4134 70.6919 56.9387 73.0797C58.3017 71.7838 60.259 70.7045 63.0148 70.0132C60.6328 79.0287 57.8173 87.618 54.3864 95.6021C54.1717 96.1018 54.4162 96.6798 54.9244 96.8591C57.5792 97.796 65.4085 100.027 71.6881 96.4338L85.6102 76.2462C87.1075 74.0752 88.0917 71.5845 88.4869 68.9668L89.0367 65.325C89.0365 65.325 76.533 60.0206 67.2996 60.496Z" fill="#D974E6"/>
<path d="M59.7068 91.0452C59.1017 89.6921 57.0302 88.428 56.0414 87.8848C55.1813 86.0893 51.7481 78.0143 56.9387 73.0796C55.4133 70.6918 53.367 68.2745 52.0371 66.7878C47.0448 71.442 45.2173 78.7533 53.9716 88.9903C53.4938 91.5116 55.0529 94.4477 55.896 94.8591C56.2844 95.0488 60.5109 92.8433 59.7068 91.0452Z" fill="url(#paint13_linear_218_1497)"/>
<path d="M76.7035 55.134L73.0663 62.3436C72.8444 62.7835 72.9104 63.315 73.2362 63.6825C74.1169 64.6759 76.1971 66.2894 79.8154 65.1331C80.2143 65.0056 80.5014 64.6505 80.562 64.2313L81.5093 57.6836L76.7035 55.134Z" fill="url(#paint14_linear_218_1497)"/>
<path d="M82.7671 46.7625C82.7671 46.7625 84.9004 51.7252 85.0437 54.33C85.187 56.9348 85.7412 58.625 82.7671 59.1495C79.7929 59.674 77.2875 58.1736 75.9302 55.579C75.9302 55.579 73.8035 51.5809 74.2806 49.9436C74.7576 48.3062 82.7671 46.7625 82.7671 46.7625Z" fill="url(#paint15_linear_218_1497)"/>
<path d="M76.9465 53.7133L77.1158 53.6378C77.3314 53.5416 77.4236 53.2817 77.3153 53.0699C76.896 52.2492 76.0783 50.3688 77.1346 49.9302C78.4958 49.3649 83.8875 48.2513 85.0509 46.3139C86.169 44.4519 85.1783 42.0482 83.6895 41.3646C83.5899 41.3188 83.4724 41.3551 83.4213 41.453L83.2972 41.6908C83.2123 41.8535 82.9749 41.8288 82.9244 41.652C82.876 41.4822 82.653 41.4494 82.5605 41.5992C82.203 42.1788 81.2375 43.1185 78.6558 43.601C74.9868 44.2868 72.561 45.7905 72.5007 48.3579C72.4969 48.5211 72.3255 48.6117 72.1879 48.5268C71.917 48.3596 71.4834 48.2812 70.904 48.7745C69.8964 49.6325 70.3087 51.8582 72.5177 53.6891C72.6227 53.7761 72.6217 53.942 72.5082 54.0169C72.1078 54.2808 71.5107 54.909 73.0576 55.7464C74.6575 56.6125 75.8523 56.5414 76.3124 56.4645C76.4268 56.4454 76.5006 56.3332 76.4756 56.2184L75.9845 53.9618C75.9567 53.8341 76.0528 53.713 76.1819 53.713H76.9465V53.7133Z" fill="url(#paint16_linear_218_1497)"/>
<path d="M77.0389 54.1895C77.0389 54.1895 76.225 51.0194 74.8215 51.9082C73.418 52.797 75.5498 55.4602 76.6782 55.5789L77.0389 54.1895Z" fill="url(#paint17_linear_218_1497)"/>
<path d="M197.433 93.7562H192.637L185.098 71.298L206.055 70.009L197.433 93.7562Z" fill="url(#paint18_linear_218_1497)"/>
<path d="M172.342 29.5727C172.318 31.4683 172.318 68.5817 190.923 74.6085C209.527 80.6355 217.93 49.2337 217.263 26.8696L172.342 29.5727Z" fill="url(#paint19_linear_218_1497)"/>
<path d="M209.907 97.1633H180.164V100.82H209.907V97.1633Z" fill="url(#paint20_linear_218_1497)"/>
<path d="M209.907 97.1633H180.164L187.692 93.0737H202.38L209.907 97.1633Z" fill="url(#paint21_linear_218_1497)"/>
<path d="M170.186 24.3069C168.553 24.4075 167.217 25.6318 167.217 27.0277V29.8822C167.217 31.278 168.554 32.3471 170.187 32.2582L221.175 29.48C222.809 29.391 224.146 28.1762 224.146 26.7804V23.5199C224.146 22.124 222.81 21.0644 221.177 21.1651L170.186 24.3069Z" fill="url(#paint22_linear_218_1497)"/>
<path d="M204.097 77.5583C202.909 77.5583 201.884 76.798 201.746 75.7672C201.597 74.6591 202.53 73.6579 203.83 73.5307C204.077 73.5055 221.187 71.676 222.809 62.1923C223.083 60.5934 223.053 58.5044 221.355 57.6328C219.953 56.9131 217.659 57.1419 216.019 58.1647C215.086 58.7463 214.065 59.765 214.499 61.3155C214.803 62.4007 214.017 63.4906 212.744 63.7497C211.471 64.0086 210.193 63.3389 209.889 62.2535C209.102 59.4425 210.347 56.6947 213.22 54.9033C216.412 52.9127 220.763 52.612 223.8 54.1713C225.575 55.0828 228.417 57.4126 227.5 62.7754C226.592 68.078 222.22 72.3256 214.855 75.0591C209.567 77.022 204.579 77.5247 204.369 77.5451C204.278 77.554 204.187 77.5583 204.097 77.5583Z" fill="url(#paint23_linear_218_1497)"/>
<path d="M186.351 77.5583C187.54 77.5583 188.565 76.798 188.703 75.7672C188.851 74.6591 187.918 73.6579 186.619 73.5307C186.371 73.5055 169.261 71.676 167.639 62.1923C167.365 60.5934 167.396 58.5044 169.094 57.6328C170.495 56.9131 172.789 57.1419 174.43 58.1647C175.363 58.7463 176.383 59.765 175.949 61.3155C175.645 62.4007 176.431 63.4906 177.704 63.7497C178.977 64.0086 180.255 63.3389 180.559 62.2535C181.346 59.4425 180.101 56.6947 177.228 54.9033C174.036 52.9127 169.686 52.612 166.648 54.1713C164.873 55.0828 162.031 57.4126 162.949 62.7754C163.856 68.078 168.228 72.3256 175.593 75.0591C180.881 77.022 185.869 77.5247 186.079 77.5451C186.171 77.554 186.261 77.5583 186.351 77.5583Z" fill="url(#paint24_linear_218_1497)"/>
<path opacity="0.68" d="M207.171 26.6575C206.967 26.6575 206.796 26.4954 206.785 26.2862C206.773 26.0698 206.937 25.885 207.151 25.8732L211.704 25.6253C211.918 25.6169 212.1 25.7796 212.112 25.996C212.123 26.2124 211.959 26.3972 211.746 26.409L207.192 26.6569C207.185 26.6573 207.178 26.6575 207.171 26.6575Z" fill="white"/>
<path opacity="0.68" d="M172.34 28.5554C172.136 28.5554 171.965 28.3933 171.953 28.184C171.942 27.9677 172.106 27.7827 172.32 27.7711L199.522 26.289C199.735 26.2763 199.919 26.4434 199.93 26.6597C199.942 26.8761 199.778 27.0609 199.564 27.0727L172.361 28.5547C172.354 28.5552 172.347 28.5554 172.34 28.5554Z" fill="white"/>
<path opacity="0.68" d="M193.404 70.4015C193.389 70.4015 193.374 70.4008 193.359 70.399C188.433 69.8252 184.495 65.7631 181.654 58.3255C179.309 52.1838 178.202 44.9963 177.686 40.0483C177.664 39.8328 177.818 39.6396 178.031 39.6168C178.244 39.5963 178.435 39.7504 178.457 39.9659C179.342 48.4599 182.575 68.3528 193.447 69.6191C193.66 69.644 193.813 69.8385 193.788 70.0539C193.765 70.254 193.598 70.4015 193.404 70.4015Z" fill="white"/>
<path opacity="0.68" d="M177.743 36.5185C177.54 36.5185 177.37 36.359 177.356 36.1515C177.284 35.019 177.264 34.3675 177.264 34.3403C177.257 34.1236 177.426 33.9429 177.639 33.9364C177.869 33.922 178.032 34.1004 178.038 34.3169C178.038 34.3234 178.058 34.9834 178.13 36.1006C178.144 36.3169 177.982 36.5035 177.768 36.5177C177.76 36.5183 177.751 36.5185 177.743 36.5185Z" fill="white"/>
<path d="M169.43 253.375L248.526 253.375V237.343L169.43 237.343C171.123 237.343 171.123 253.375 169.43 253.375Z" fill="#BDD0FB"/>
<path d="M248.526 249.363V242.026C248.526 239.44 246.963 237.343 245.035 237.343H169.764C168.248 237.343 167.018 236.099 167.018 234.563C167.018 234.097 167.392 233.718 167.852 233.718H250.118C252.005 233.718 255 236.722 255 240.427V250.674C255 254.168 252.092 257 250.313 257H168.285C167.585 257 167.018 256.426 167.018 255.717C167.018 254.424 168.054 253.375 169.331 253.375H245.535C247.187 253.375 248.526 251.579 248.526 249.363Z" fill="url(#paint25_linear_218_1497)"/>
<path d="M246.332 240.946H172.169C171.998 240.946 171.86 240.806 171.86 240.633C171.86 240.46 171.998 240.32 172.169 240.32H246.332C246.503 240.32 246.642 240.46 246.642 240.633C246.642 240.806 246.503 240.946 246.332 240.946Z" fill="url(#paint26_linear_218_1497)"/>
<path d="M246.332 243.326H172.169C171.998 243.326 171.86 243.185 171.86 243.012C171.86 242.839 171.998 242.699 172.169 242.699H246.332C246.503 242.699 246.642 242.839 246.642 243.012C246.642 243.185 246.503 243.326 246.332 243.326Z" fill="url(#paint27_linear_218_1497)"/>
<path d="M246.332 245.705H172.169C171.998 245.705 171.86 245.565 171.86 245.392C171.86 245.219 171.998 245.079 172.169 245.079H246.332C246.503 245.079 246.642 245.219 246.642 245.392C246.642 245.565 246.503 245.705 246.332 245.705Z" fill="url(#paint28_linear_218_1497)"/>
<path d="M246.332 248.085H172.169C171.998 248.085 171.86 247.945 171.86 247.772C171.86 247.599 171.998 247.458 172.169 247.458H246.332C246.503 247.458 246.642 247.599 246.642 247.772C246.642 247.945 246.503 248.085 246.332 248.085Z" fill="url(#paint29_linear_218_1497)"/>
<path d="M246.332 250.465H172.169C171.998 250.465 171.86 250.324 171.86 250.151C171.86 249.978 171.998 249.838 172.169 249.838H246.332C246.503 249.838 246.642 249.978 246.642 250.151C246.642 250.324 246.503 250.465 246.332 250.465Z" fill="url(#paint30_linear_218_1497)"/>
<path d="M178.443 233.646H247.214C247.877 233.646 248.414 233.101 248.414 232.43V217.464C248.414 216.792 247.877 216.248 247.214 216.248H178.443C177.78 216.248 177.243 216.792 177.243 217.464V232.43C177.243 233.101 177.78 233.646 178.443 233.646Z" fill="url(#paint31_linear_218_1497)"/>
<path d="M232.666 231.646H239.714C240.077 231.646 240.371 231.348 240.371 230.981V218.912C240.371 218.545 240.077 218.247 239.714 218.247H232.666C232.304 218.247 232.01 218.545 232.01 218.912V230.981C232.01 231.348 232.304 231.646 232.666 231.646Z" fill="url(#paint32_linear_218_1497)"/>
<path d="M227.976 231.646H230.448C230.631 231.646 230.78 231.495 230.78 231.309V218.584C230.78 218.398 230.631 218.247 230.447 218.247H227.976C227.792 218.247 227.643 218.398 227.643 218.584V231.309C227.643 231.495 227.792 231.646 227.976 231.646Z" fill="url(#paint33_linear_218_1497)"/>
<path d="M6.62701 255.266C6.62701 255.266 141.402 228.493 225.782 105.369L216.006 101.942C213.303 100.995 212.727 97.3828 214.998 95.6221L246.029 71.564C248.384 69.7383 251.776 71.5031 251.682 74.5051L250.42 114.571C250.336 117.244 247.282 118.681 245.21 117.022L236.917 110.381C236.917 110.381 193.89 228.955 110.996 255.266H6.62701Z" fill="#D974E6"/>
<defs>
<linearGradient id="paint0_linear_218_1497" x1="284.269" y1="331.482" x2="55.9325" y2="51.455" gradientUnits="userSpaceOnUse">
<stop stop-color="#55BD51"/>
<stop offset="1" stop-color="#8CDF75" stop-opacity="0.7"/>
</linearGradient>
<linearGradient id="paint1_linear_218_1497" x1="74.7714" y1="193.713" x2="225.876" y2="192.658" gradientUnits="userSpaceOnUse">
<stop stop-color="#FF928E"/>
<stop offset="1" stop-color="#FE7062"/>
</linearGradient>
<linearGradient id="paint2_linear_218_1497" x1="166.617" y1="103.479" x2="-25.7967" y2="393.648" gradientUnits="userSpaceOnUse">
<stop stop-color="#FF928E"/>
<stop offset="1" stop-color="#FE7062"/>
</linearGradient>
<linearGradient id="paint3_linear_218_1497" x1="113.889" y1="73.2442" x2="69.0535" y2="94.6915" gradientUnits="userSpaceOnUse">
<stop stop-color="#FEBBBA"/>
<stop offset="1" stop-color="#FF928E"/>
</linearGradient>
<linearGradient id="paint4_linear_218_1497" x1="114.101" y1="73.6891" x2="69.2663" y2="95.1365" gradientUnits="userSpaceOnUse">
<stop stop-color="#FEBBBA"/>
<stop offset="1" stop-color="#FF928E"/>
</linearGradient>
<linearGradient id="paint5_linear_218_1497" x1="22.6756" y1="144.801" x2="29.6615" y2="144.801" gradientUnits="userSpaceOnUse">
<stop stop-color="#4F52FF"/>
<stop offset="1" stop-color="#4042E2"/>
</linearGradient>
<linearGradient id="paint6_linear_218_1497" x1="23.3732" y1="144.356" x2="30.8071" y2="144.356" gradientUnits="userSpaceOnUse">
<stop stop-color="#09005D"/>
<stop offset="1" stop-color="#1A0F91"/>
</linearGradient>
<linearGradient id="paint7_linear_218_1497" x1="27.0844" y1="136.744" x2="32.551" y2="136.744" gradientUnits="userSpaceOnUse">
<stop stop-color="#FEBBBA"/>
<stop offset="1" stop-color="#FF928E"/>
</linearGradient>
<linearGradient id="paint8_linear_218_1497" x1="106.931" y1="119.4" x2="117.403" y2="119.4" gradientUnits="userSpaceOnUse">
<stop stop-color="#4F52FF"/>
<stop offset="1" stop-color="#4042E2"/>
</linearGradient>
<linearGradient id="paint9_linear_218_1497" x1="104.321" y1="119.301" x2="116.948" y2="119.301" gradientUnits="userSpaceOnUse">
<stop stop-color="#09005D"/>
<stop offset="1" stop-color="#1A0F91"/>
</linearGradient>
<linearGradient id="paint10_linear_218_1497" x1="100.973" y1="118.931" x2="106.979" y2="118.931" gradientUnits="userSpaceOnUse">
<stop stop-color="#FEBBBA"/>
<stop offset="1" stop-color="#FF928E"/>
</linearGradient>
<linearGradient id="paint11_linear_218_1497" x1="28.8552" y1="116.493" x2="69.3196" y2="116.493" gradientUnits="userSpaceOnUse">
<stop stop-color="#22241E"/>
<stop offset="1" stop-color="#32342D"/>
</linearGradient>
<linearGradient id="paint12_linear_218_1497" x1="54.5629" y1="106.736" x2="104.321" y2="106.736" gradientUnits="userSpaceOnUse">
<stop stop-color="#22241E"/>
<stop offset="1" stop-color="#32342D"/>
</linearGradient>
<linearGradient id="paint13_linear_218_1497" x1="58.5104" y1="88.021" x2="31.4425" y2="40.7792" gradientUnits="userSpaceOnUse">
<stop stop-color="#FEBBBA"/>
<stop offset="1" stop-color="#FF928E"/>
</linearGradient>
<linearGradient id="paint14_linear_218_1497" x1="75.2989" y1="67.6785" x2="78.1412" y2="59.6742" gradientUnits="userSpaceOnUse">
<stop stop-color="#FEBBBA"/>
<stop offset="1" stop-color="#FF928E"/>
</linearGradient>
<linearGradient id="paint15_linear_218_1497" x1="83.2143" y1="51.1307" x2="70.9056" y2="60.4308" gradientUnits="userSpaceOnUse">
<stop stop-color="#FEBBBA"/>
<stop offset="1" stop-color="#FF928E"/>
</linearGradient>
<linearGradient id="paint16_linear_218_1497" x1="74.6292" y1="43.6484" x2="86.1665" y2="58.3167" gradientUnits="userSpaceOnUse">
<stop stop-color="#09005D"/>
<stop offset="1" stop-color="#1A0F91"/>
</linearGradient>
<linearGradient id="paint17_linear_218_1497" x1="81.7016" y1="49.1285" x2="69.3928" y2="58.4285" gradientUnits="userSpaceOnUse">
<stop stop-color="#FEBBBA"/>
<stop offset="1" stop-color="#FF928E"/>
</linearGradient>
<linearGradient id="paint18_linear_218_1497" x1="193.661" y1="77.3396" x2="215.632" y2="98.2887" gradientUnits="userSpaceOnUse">
<stop stop-color="#FDF53F"/>
<stop offset="1" stop-color="#D93C65"/>
</linearGradient>
<linearGradient id="paint19_linear_218_1497" x1="190.711" y1="41.839" x2="235.626" y2="86.8337" gradientUnits="userSpaceOnUse">
<stop stop-color="#FDF53F"/>
<stop offset="1" stop-color="#D93C65"/>
</linearGradient>
<linearGradient id="paint20_linear_218_1497" x1="192.317" y1="98.2922" x2="193.078" y2="104.98" gradientUnits="userSpaceOnUse">
<stop stop-color="#FDF53F"/>
<stop offset="1" stop-color="#D93C65"/>
</linearGradient>
<linearGradient id="paint21_linear_218_1497" x1="192.317" y1="94.3362" x2="193.266" y2="101.791" gradientUnits="userSpaceOnUse">
<stop stop-color="#FDF53F"/>
<stop offset="1" stop-color="#D93C65"/>
</linearGradient>
<linearGradient id="paint22_linear_218_1497" x1="190.478" y1="24.5864" x2="194.074" y2="44.5085" gradientUnits="userSpaceOnUse">
<stop stop-color="#FDF53F"/>
<stop offset="1" stop-color="#D93C65"/>
</linearGradient>
<linearGradient id="paint23_linear_218_1497" x1="212.332" y1="60.704" x2="234.695" y2="86.4203" gradientUnits="userSpaceOnUse">
<stop stop-color="#FDF53F"/>
<stop offset="1" stop-color="#D93C65"/>
</linearGradient>
<linearGradient id="paint24_linear_218_1497" x1="173.373" y1="60.704" x2="268.83" y2="55.545" gradientUnits="userSpaceOnUse">
<stop stop-color="#FDF53F"/>
<stop offset="1" stop-color="#D93C65"/>
</linearGradient>
<linearGradient id="paint25_linear_218_1497" x1="244.65" y1="206.77" x2="179.698" y2="276.437" gradientUnits="userSpaceOnUse">
<stop stop-color="#4F52FF"/>
<stop offset="1" stop-color="#4042E2"/>
</linearGradient>
<linearGradient id="paint26_linear_218_1497" x1="171.86" y1="240.633" x2="246.642" y2="240.633" gradientUnits="userSpaceOnUse">
<stop stop-color="#DAE3FE"/>
<stop offset="1" stop-color="#E9EFFD"/>
</linearGradient>
<linearGradient id="paint27_linear_218_1497" x1="171.86" y1="243.012" x2="246.642" y2="243.012" gradientUnits="userSpaceOnUse">
<stop stop-color="#DAE3FE"/>
<stop offset="1" stop-color="#E9EFFD"/>
</linearGradient>
<linearGradient id="paint28_linear_218_1497" x1="171.86" y1="245.392" x2="246.642" y2="245.392" gradientUnits="userSpaceOnUse">
<stop stop-color="#DAE3FE"/>
<stop offset="1" stop-color="#E9EFFD"/>
</linearGradient>
<linearGradient id="paint29_linear_218_1497" x1="171.86" y1="247.772" x2="246.642" y2="247.772" gradientUnits="userSpaceOnUse">
<stop stop-color="#DAE3FE"/>
<stop offset="1" stop-color="#E9EFFD"/>
</linearGradient>
<linearGradient id="paint30_linear_218_1497" x1="171.86" y1="250.151" x2="246.642" y2="250.151" gradientUnits="userSpaceOnUse">
<stop stop-color="#DAE3FE"/>
<stop offset="1" stop-color="#E9EFFD"/>
</linearGradient>
<linearGradient id="paint31_linear_218_1497" x1="221.115" y1="201.451" x2="275.527" y2="51.0048" gradientUnits="userSpaceOnUse">
<stop stop-color="#FE7062"/>
<stop offset="1" stop-color="#FF928E"/>
</linearGradient>
<linearGradient id="paint32_linear_218_1497" x1="278.361" y1="135.412" x2="179.936" y2="339.181" gradientUnits="userSpaceOnUse">
<stop stop-color="#FF928E"/>
<stop offset="1" stop-color="#FE7062"/>
</linearGradient>
<linearGradient id="paint33_linear_218_1497" x1="271.459" y1="135.249" x2="176.002" y2="332.873" gradientUnits="userSpaceOnUse">
<stop stop-color="#FF928E"/>
<stop offset="1" stop-color="#FE7062"/>
</linearGradient>
</defs>
</svg>
