<svg width="58" height="58" viewBox="0 0 58 58" fill="none" xmlns="http://www.w3.org/2000/svg">
<path fill-rule="evenodd" clip-rule="evenodd" d="M41.8997 19.4252L41.9135 19.4034C41.9615 19.3421 42.1587 19.0788 41.6092 18.141C40.9714 17.0433 39.5974 15.6601 37.4872 14.3243C35.377 12.9885 33.5375 12.3406 32.2775 12.2307C31.1912 12.136 31.0389 12.4248 31.0026 12.4966L30.9888 12.5184C30.9408 12.5797 30.7436 12.843 31.2953 13.7822C31.931 14.8785 33.305 16.2618 35.4151 17.5975C37.5253 18.9333 39.3648 19.5812 40.6271 19.6925C41.7112 19.7858 41.8634 19.497 41.8997 19.4252ZM45.1799 21.4864C44.1604 23.0968 42.4475 23.712 40.3954 23.5592L39.0047 29.7396C41.7306 32.9323 42.7699 36.1578 41.1122 38.7764C38.5512 42.8221 31.9365 41.6732 24.9869 37.6926L20.4754 44.8196C20.2006 45.2537 19.7647 45.5608 19.2634 45.6734C18.7622 45.7861 18.2368 45.695 17.8027 45.4202C17.3687 45.1455 17.0615 44.7095 16.9489 44.2083C16.8363 43.7071 16.9273 43.1816 17.2021 42.7476L21.7137 35.6206C15.1412 31.0443 11.274 25.555 13.8337 21.5115C15.4914 18.8929 18.8513 18.4523 22.9033 19.5501L27.8959 15.6467C26.8799 13.8573 26.703 12.0459 27.7225 10.4354C29.7945 7.16218 34.7366 7.9982 39.5592 11.051C44.3818 14.1038 47.2519 18.2131 45.1799 21.4864Z" fill="#D974E6"/>
</svg>
